<svg xmlns="http://www.w3.org/2000/svg" viewBox="-600 -300 1200 600" width="1200" height="800" style="background-color: rgb(255, 255, 255);"><path d="M385.4755679139312,-197.06369202265694L329.62544114609796,-177.91652758885115M329.62544114609796,-177.91652758885115L255.1625685584961,-179.66689759812272M329.62544114609796,-177.91652758885115L382.278646836633,-128.0423628919805M255.1625685584961,-179.66689759812272L205.7062839452592,-201.28945920450718M202.50936286796104,-132.26813007383078L255.1625685584961,-179.66689759812272M382.278646836633,-59.26001751325552L382.278646836633,-128.0423628919805M382.278646836633,-128.0423628919805L385.4755679139312,-197.06369202265694M46.25935963656626,-95.55726967193127L-6.393841615635729,-145.43143016472445M-6.393841615635729,-145.43143016472445L-3.1969208078178646,-214.4527534773383M-6.393841615635729,-145.43143016472445L-59.047042867837725,-98.0326666358496" style="fill:none;stroke:rgb(0,0,0);stroke-width:1;stroke-linecap:round"/><path d="M382.61788589048575,-127.1990840368779L328.7882625354766,-178.1017596040392L385.9735074706998,-197.72173886257147z" style="fill:rgb(255,192,0)"/><path d="M329.82735146589977,-10.904226405204335L254.45998475671718,-180.1386973769517L330.1261146280751,-178.40175139378138z" style="fill:rgb(10,176,224)"/><path d="M205.7062839452592,-201.28945920450718L202.50936286796104,-132.26813007383078M202.50936286796104,-132.26813007383078L202.50936286796104,-63.485784695105785" style="fill:none;stroke:rgb(0,0,0);stroke-width:1;stroke-linecap:round"/><path d="M329.41810305558806,-10.906265465904047L329.2641552778339,-178.7621755620734L382.847270795407,-128.15169944181778z" style="fill:rgb(10,176,224)"/><path d="M202.11414511914614,-131.43466886686437L205.27303372029985,-201.99316211245088L255.99103653227036,-179.79665589714534z" style="fill:rgb(255,192,0)"/><path d="M47.12145458457576,-95.20086437542184L-59.9201214593119,-97.71168660537373L-6.382857972171056,-146.10881549170975z" style="fill:rgb(255,128,0)"/><path d="M330.1905414439059,-11.060069455072595L201.7724077986854,-132.28007032202993L255.33442332996384,-180.45613788381448z" style="fill:rgb(10,176,224)"/><path d="M46.81434954398628,-94.75175366234427L-6.7827278190923055,-145.27594445279027L-3.3630245117813096,-215.41375519885943z" style="fill:rgb(48,160,255)"/><path d="M102.10948169658612,-114.70443249175189L46.25935963656626,-95.55726967193127M-6.393841615635729,-48.158506143056414L46.25935963656626,-95.55726967193127M-59.047042867837725,-98.0326666358496L-6.393841615635729,-48.158506143056414M-108.50332331222185,-119.65522641958856L-59.047042867837725,-98.0326666358496" style="fill:none;stroke:rgb(0,0,0);stroke-width:1;stroke-linecap:round"/><path d="M209.4375918463059,-230.69244210510217L330.5833999506007,-177.7032176625649L254.99443069457124,-179.30577243726495zM329.046637646929,-11.072203618521069L382.48653058066424,-128.9977745621845L382.64956659177074,-59.093652213494025z" style="fill:rgb(10,176,224)"/><path d="M385.4755679139312,-197.06369202265694L389.9966967555558,-225.892239836108" style="fill:none;stroke:rgb(0,0,0);stroke-width:1;stroke-linecap:round"/><path d="M47.13083103222914,-95.8800698748539L-6.404820099644914,-47.4776495441645L-59.90753577949142,-98.3907230318189z" style="fill:rgb(255,128,0)"/><path d="M385.4755679139312,-31.008414422769363L382.278646836633,-59.26001751325552M382.278646836633,-59.26001751325552L329.62544114609796,-11.861249988963577M-3.1969208078178646,-214.4527534773383L52.653201252201995,-233.59991629715887M-52.653201252201995,-236.0753132610772L-3.1969208078178646,-214.4527534773383" style="fill:none;stroke:rgb(0,0,0);stroke-width:1;stroke-linecap:round"/><path d="M330.4513399185007,-11.328890607491532L202.04273208119702,-63.173933406364455L202.15009488232235,-133.11234074404413z" style="fill:rgb(10,176,224)"/><path d="M210.2274127868838,-230.11800701795823L205.7062839452592,-201.28945920450718M202.50936286796104,-63.485784695105785L205.7062839452592,-35.23418160461962M255.1625685584961,-13.611619998235142L202.50936286796104,-63.485784695105785" style="fill:none;stroke:rgb(0,0,0);stroke-width:1;stroke-linecap:round"/><path d="M209.27829354756634,-230.4117649317567L386.4405506288062,-197.13120438053053L329.60957767054043,-177.555257317179z" style="fill:rgb(10,176,224)"/><path d="M46.427345525543245,-94.59619470052077L-3.8632816753382953,-214.75625658787735L53.15157623074544,-234.25748815803027z" style="fill:rgb(48,160,255)"/><path d="M-6.393841615635729,-48.158506143056414L-3.1969208078178633,-19.90690543400217" style="fill:none;stroke:rgb(0,0,0);stroke-width:1;stroke-linecap:round"/><path d="M-105.99108762489857,-189.32257224094215L-5.561968223735483,-145.56327028607961L-59.19423113924339,-97.25480400575464z" style="fill:rgb(48,160,255)"/><path d="M209.9739541571093,-230.98508626240584L255.9524774017726,-179.09146999474254L205.16983373175722,-200.99780756343964z" style="fill:rgb(10,176,224)"/><path d="M-106.2490235683165,-188.7551493014345L-2.685542841087658,-215.0744255655555L-5.962598518453426,-144.73115850727507z" style="fill:rgb(48,160,255)"/><path d="M330.5885476902078,-11.661339317005593L255.02410853033373,-13.277843396550624L201.6847163520136,-64.01947196874828z" style="fill:rgb(10,176,224)"/><path d="M251.96564802015854,115.8473435002417L326.42852060776033,117.59771350951324M326.42852060776033,117.59771350951324L379.0817262982954,167.47187820638388M326.42852060776033,117.59771350951324L329.62544114609796,48.57639601496205" style="fill:none;stroke:rgb(0,0,0);stroke-width:1;stroke-linecap:round"/><path d="M210.34430559365765,-231.11041259412553L205.65155381947935,-201.2949795849316L202.44720018696705,-131.27020411723893zM210.2898415675374,-231.11592438355527L202.469758873836,-132.26967814400334L202.48653808143249,-62.48631925933609z" style="fill:rgb(10,176,224)"/><path d="M329.62544114609796,-11.861249988963577L255.1625685584961,-13.611619998235142M329.62544114609796,-11.861249988963577L385.4755679139312,-31.008414422769363M199.31244232962345,163.24611102453363L251.96564802015854,115.8473435002417M255.1625685584961,46.82602600569048L251.96564802015854,115.8473435002417M205.7062839452592,-35.23418160461962L255.1625685584961,-13.611619998235142" style="fill:none;stroke:rgb(0,0,0);stroke-width:1;stroke-linecap:round"/><path d="M379.9072614560945,168.00462025819152L251.00256118837376,115.6462743946468L326.566072281746,117.26604056330048z" style="fill:rgb(10,176,224)"/><path d="M45.507718746160485,-94.98096711343997L105.60961892760704,-184.64057207608127L102.55790616378884,-114.36591877852757zM-59.700182210856426,-98.78372185809086L-6.081351528898454,-48.31210410698953L-2.8562715515364347,-19.002252247827798z" style="fill:rgb(48,160,255)"/><path d="M382.5930656808282,-60.09244520717844L386.0060923187396,-30.66981278059948L328.78049789709434,-11.36742393721054z" style="fill:rgb(255,192,0)"/><path d="M330.0264270737379,47.74947458895326L326.90515826420534,118.11228292156973L251.08802443607357,116.15969551419397z" style="fill:rgb(255,128,0)"/><path d="M45.95708988847244,-94.64297589414575L52.315123567343214,-234.44510617861178L105.94674993735659,-183.7948597006983z" style="fill:rgb(48,160,255)"/><path d="M105.30640250440399,-183.7257558043657L102.10948169658612,-114.70443249175189M102.10948169658612,-114.70443249175189L105.30640250440399,-86.45283178269764" style="fill:none;stroke:rgb(0,0,0);stroke-width:1;stroke-linecap:round"/><path d="M393.7697389114521,-198.17126426156227L382.17765412856926,-127.04895427062736L385.0004395433967,-197.5264731280696z" style="fill:rgb(10,176,224)"/><path d="M379.6367162233965,168.27739420861818L326.03963440407097,117.75319922143535L329.4593374246862,47.61539430080565z" style="fill:rgb(48,160,255)"/><path d="M393.3106731930039,-198.63300823041254L382.2390469834668,-58.26156574693866L382.20119132964925,-128.04844317350663z" style="fill:rgb(10,176,224)"/><path d="M106.27334188400782,-86.53751739984509L-7.239345036550938,-47.66285253907948L46.13792367787765,-95.96823765876074z" style="fill:rgb(48,160,255)"/><path d="M380.0444697577089,167.67268031777064L198.43936373828376,163.56709105516035L251.87598315208476,115.3255613582282z" style="fill:rgb(10,176,224)"/><path d="M-301.0484111582253,-172.81777150359045L-248.39520990602335,-122.94361101079727M-353.7016124104273,-125.4190079747156L-301.0484111582253,-172.81777150359045M-301.0484111582253,-172.81777150359045L-350.50469160260946,-194.4403312873294M-245.19828909820546,-191.9649343234111L-301.0484111582253,-172.81777150359045M379.0817262982954,167.47187820638388L379.0817262982954,236.2542235851089M434.93184365050195,148.32471700054842L379.0817262982954,167.47187820638388" style="fill:none;stroke:rgb(0,0,0);stroke-width:1;stroke-linecap:round"/><path d="M202.09205065391882,-64.32667039295582L255.98307374875634,-13.066053552368004L205.3030909690412,-34.93886235263671z" style="fill:rgb(255,192,0)"/><path d="M-105.50898072414593,-189.6212951007073L-58.36280662612876,-97.38434627426028L-108.98498133418889,-119.35880141267295zM198.72379306979425,164.0305831026789L255.40337046507995,45.87581923732978L252.3134953734039,116.01307819045711z" style="fill:rgb(48,160,255)"/><path d="M330.50320309229056,48.26186883785226L251.56198083856626,116.67405069620496L254.6884737938958,46.313845986837z" style="fill:rgb(255,128,0)"/><path d="M-106.16289119752487,-188.21999392488854L-52.73800790075583,-236.61400677429302L-2.255625466143146,-214.37061577143626z" style="fill:rgb(48,160,255)"/><path d="M330.6166561180632,-11.757547422704482L204.7564085147277,-35.52620913636588L255.12122901706238,-13.423295032747978z" style="fill:rgb(10,176,224)"/><path d="M105.8566765784277,-85.87979614942317L45.291592856112786,-95.47316145487224L102.52697440301588,-115.36157634208539z" style="fill:rgb(48,160,255)"/><path d="M52.653201252201995,-233.59991629715887L105.30640250440399,-183.7257558043657M52.653201252201995,-233.59991629715887L3.196920807817866,-255.22247608089788M-105.30640250440399,-91.4036257105343L-108.50332331222185,-119.65522641958856M-108.50332331222185,-119.65522641958856L-105.30640250440399,-188.67654973220235M199.31244232962345,232.02845640325864L199.31244232962345,163.24611102453363M199.31244232962345,163.24611102453363L149.8561660540921,141.6235530634402" style="fill:none;stroke:rgb(0,0,0);stroke-width:1;stroke-linecap:round"/><path d="M2.8157831776902613,-255.91680915873363L53.585221160784926,-233.5590774431616L-3.7478030862731844,-213.7992592534997z" style="fill:rgb(255,128,0)"/><path d="M209.2364326266991,-230.22358069666603L390.58238478162735,-226.373068579795L385.8808600480443,-196.477289600262z" style="fill:rgb(10,176,224)"/><path d="M385.4755679139312,29.429231581156262L329.62544114609796,48.57639601496205M329.62544114609796,48.57639601496205L255.1625685584961,46.82602600569048" style="fill:none;stroke:rgb(0,0,0);stroke-width:1;stroke-linecap:round"/><path d="M3.747089983550973,-255.87938895298345L-2.8180685149673286,-213.75440788410023L-53.58222272078564,-236.11674598222962z" style="fill:rgb(255,128,0)"/><path d="M3.196920807817866,-255.22247608089788L-52.653201252201995,-236.0753132610772M-52.653201252201995,-236.0753132610772L-105.30640250440399,-188.67654973220235M255.1625685584961,46.82602600569048L205.7062839452592,25.203464399306018" style="fill:none;stroke:rgb(0,0,0);stroke-width:1;stroke-linecap:round"/><path d="M-58.09461006343872,-97.90184081129405L-105.75386186163377,-90.83495933936726L-109.00829675939109,-120.35471861531117z" style="fill:rgb(48,160,255)"/><path d="M380.0521439198702,167.31552718795754L198.8384526795873,232.69743282166203L198.8160143580848,162.73348562455658z" style="fill:rgb(10,176,224)"/><path d="M-245.19828909820546,-94.69201030174304L-248.39520990602335,-122.94361101079727M-248.39520990602335,-122.94361101079727L-245.19828909820546,-191.9649343234111M-248.39520990602335,-122.94361101079727L-301.0484111582253,-75.5448474819224" style="fill:none;stroke:rgb(0,0,0);stroke-width:1;stroke-linecap:round"/><path d="M210.26199642949322,-231.11734043463522L202.42860081042605,-63.482988089642994L205.75246236018478,-34.237644793405366z" style="fill:rgb(10,176,224)"/><path d="M-301.41135852566305,-173.66161541219492L-247.6582548365511,-122.9316707623766L-301.42241886025977,-74.7129438217386z" style="fill:rgb(255,128,0)"/><path d="M-244.70223494135286,-192.626715366043L-248.05713222116452,-122.09842112934437L-301.88254299993673,-173.00118034241143z" style="fill:rgb(255,192,0)"/><path d="M-300.67620631013403,-173.65163307828476L-300.68712529010566,-74.69919950854916L-354.4351031266382,-125.43079437339455z" style="fill:rgb(255,128,0)"/><path d="M379.24971220514124,168.43295317039087L328.95908026088813,48.272892912178214L385.97394289229516,28.771659719933123z" style="fill:rgb(48,160,255)"/><path d="M-350.50469160260946,-194.4403312873294L-353.7016124104273,-125.4190079747156M-353.7016124104273,-125.4190079747156L-350.50469160260946,-97.16740726566135M-301.0484111582253,-75.5448474819224L-353.7016124104273,-125.4190079747156" style="fill:none;stroke:rgb(0,0,0);stroke-width:1;stroke-linecap:round"/><path d="M-354.0968301592826,-124.58554676779421L-350.93794182742084,-195.14403419560367L-300.2199431845586,-172.9475298022376z" style="fill:rgb(255,192,0)"/><path d="M108.50332331222185,-155.47415509531146L105.30640250440399,-183.7257558043657" style="fill:none;stroke:rgb(0,0,0);stroke-width:1;stroke-linecap:round"/><path d="M379.2881068282325,166.51645853524212L379.45509302992326,236.421661886001L325.84877334619534,284.44097247965044z" style="fill:rgb(10,176,224)"/><path d="M106.20611724128156,-86.87488160614143L-3.5747858366506535,-19.147843153456044L-6.915691323680502,-48.49551860015876z" style="fill:rgb(48,160,255)"/><path d="M379.0817262982954,236.2542235851089L326.42852060776033,283.6529911094008M379.0817262982954,236.2542235851089L434.93184365050195,217.10706237927343M389.9966967555558,-225.892239836108L393.1936178328539,-197.6406367456218M340.5404121423188,-247.51480144249246L389.9966967555558,-225.892239836108" style="fill:none;stroke:rgb(0,0,0);stroke-width:1;stroke-linecap:round"/><path d="M393.7546098325389,-197.18181600299644L384.8912951966501,-196.5338126442767L390.0199774731518,-226.8809399571135z" style="fill:rgb(10,176,224)"/><path d="M105.32993456443377,-184.72520173952861L105.36165750977304,-85.45589427718848L102.03069463118729,-114.70192406209814z" style="fill:rgb(255,128,0)"/><path d="M199.07198271864618,164.1958750466504L205.27303372029985,24.499761491362314L255.83627839443272,46.579964891517456z" style="fill:rgb(48,160,255)"/><path d="M393.25634655478933,-198.63853107381595L385.5072947796395,-30.011968740337874L382.18419124898924,-59.25856886749287z" style="fill:rgb(10,176,224)"/><path d="M389.9966967555558,-59.83696223622039L385.4755679139312,-31.008414422769363" style="fill:none;stroke:rgb(0,0,0);stroke-width:1;stroke-linecap:round"/><path d="M106.07904502577024,-183.09521401536003L52.7489588886571,-233.7449174496003L2.3285206499965034,-255.70801671746204z" style="fill:rgb(48,160,255)"/><path d="M379.9241400537577,166.96900029871418L251.9546695363502,282.58347769881203L198.48100705796952,231.85047771224555z" style="fill:rgb(10,176,224)"/><path d="M-59.39240084960095,-98.9364321124524L-2.4489632354545106,-19.297700672495797L-53.055800842802114,-41.23490450264472z" style="fill:rgb(48,160,255)"/><path d="M378.70871532765096,166.63973182005952L435.77973420702284,217.2805359075431L378.6068467124189,236.9128964431636z" style="fill:rgb(255,128,0)"/><path d="M379.6600106326738,166.6822532348503L326.72190687486096,284.1232509202L251.09397741867951,282.2219862608636z" style="fill:rgb(10,176,224)"/><path d="M-105.30640250440399,-188.67654973220235L-102.10948169658612,-160.42494902314812" style="fill:none;stroke:rgb(0,0,0);stroke-width:1;stroke-linecap:round"/><path d="M328.76172239341093,-11.387136191391834L385.8786303582777,-30.675477731499758L390.4573530638963,-60.64401272506174z" style="fill:rgb(10,176,224)"/><path d="M251.96564802015854,281.90262110012924L199.31244232962345,232.02845640325864M149.8561660540921,210.4058984421652L199.31244232962345,232.02845640325864" style="fill:none;stroke:rgb(0,0,0);stroke-width:1;stroke-linecap:round"/><path d="M378.33008543150993,168.04818078074857L438.43198112707626,78.38857158233729L435.38026811801126,148.6632307137185z" style="fill:rgb(48,160,255)"/><path d="M213.42433386418193,-201.86640392747208L210.2274127868838,-230.11800701795823M210.2274127868838,-230.11800701795823L266.077539554717,-249.265171451764" style="fill:none;stroke:rgb(0,0,0);stroke-width:1;stroke-linecap:round"/><path d="M378.23475189535714,167.30217737828707L435.4082504379949,147.66257759519564L435.3024112659472,217.93890261272307z" style="fill:rgb(255,128,0)"/><path d="M-350.50469160260946,-97.16740726566135L-301.0484111582253,-75.5448474819224M-301.0484111582253,-75.5448474819224L-245.19828909820546,-94.69201030174304M205.7062839452592,-35.23418160461962L210.2274127868838,-64.06272941807065" style="fill:none;stroke:rgb(0,0,0);stroke-width:1;stroke-linecap:round"/><path d="M-105.28344387740182,-189.67601422651663L-108.58408536987756,-119.65242981411178L-105.24859907375046,-90.40695782169684z" style="fill:rgb(255,128,0)"/><path d="M378.7794565736962,168.3861719999788L385.13749022922315,28.584041699545896L438.7691121371073,79.23428395788748zM-58.60848149704502,-98.60154264388373L-52.23549966673114,-40.68719206121487L-106.16266546066757,-91.67702285902644z" style="fill:rgb(48,160,255)"/><path d="M-3.1969208078178633,-19.90690543400217L-52.653201252201995,-41.52946521774113M52.653201252201995,-39.05406825382278L-3.1969208078178633,-19.90690543400217" style="fill:none;stroke:rgb(0,0,0);stroke-width:1;stroke-linecap:round"/><path d="M330.5751874145831,-11.569785469441898L209.83859116080953,-64.75819890404237L205.14535930284833,-34.83017663816957z" style="fill:rgb(10,176,224)"/><path d="M-245.19828909820546,-191.9649343234111L-242.00136829038763,-163.71333361435683M-294.6545695425896,-213.58749410715L-245.19828909820546,-191.9649343234111M434.93184365050195,217.10706237927343L434.93184365050195,148.32471700054842M434.93184365050195,148.32471700054842L438.1287647278001,79.30338786987201" style="fill:none;stroke:rgb(0,0,0);stroke-width:1;stroke-linecap:round"/><path d="M199.67480221258108,162.40158915988215L199.76886046231914,232.73261929936513L149.0373880384388,210.54625741071024zM-301.5985803339584,-172.16085863150482L-295.03342183544015,-214.28583970038804L-244.26926762962182,-191.92350160225865z" style="fill:rgb(255,128,0)"/><path d="M-248.0807910619076,-123.77603870480799L-244.66776469328633,-94.35340865924134L-301.8933544072601,-75.05102143041336z" style="fill:rgb(255,192,0)"/><path d="M-300.6672735280977,-172.12343842575464L-351.43671151119236,-194.48117014132666L-294.1036872641343,-214.24098833098856z" style="fill:rgb(255,128,0)"/><path d="M209.23195525560993,-230.0639090286802L340.57886178442,-247.78347547870393L390.9537046447285,-225.6776637891744z" style="fill:rgb(10,176,224)"/><path d="M-347.30777079479157,-166.18873057827517L-350.50469160260946,-194.4403312873294M-350.50469160260946,-194.4403312873294L-294.6545695425896,-213.58749410715" style="fill:none;stroke:rgb(0,0,0);stroke-width:1;stroke-linecap:round"/><path d="M-350.90755839112853,-96.86866573257632L-354.11931399589815,-126.26128113124186L-300.22784278423535,-75.0013158584812z" style="fill:rgb(255,192,0)"/><path d="M326.42852060776033,283.6529911094008L251.96564802015854,281.90262110012924M329.62544114609796,311.9045894370231L326.42852060776033,283.6529911094008" style="fill:none;stroke:rgb(0,0,0);stroke-width:1;stroke-linecap:round"/><path d="M199.99814266214918,163.89161605758093L149.3715204947503,141.92255321457873L152.85203235820632,71.65771874857798z" style="fill:rgb(48,160,255)"/><path d="M200.13243255057662,163.1013385994713L149.49169391051845,211.25094383353226L149.4006479767126,140.92328009713555z" style="fill:rgb(255,128,0)"/><path d="M199.51619494828543,164.1909131224311L152.45191803315828,72.48884639954673L206.10370042482919,24.3720398346256z" style="fill:rgb(48,160,255)"/><path d="M-350.44807323665003,-96.17062324756489L-350.48172349795715,-195.43980347491214L-353.781198881039,-125.41631980522935z" style="fill:rgb(255,128,0)"/><path d="M389.9966967555558,0.6006837677052432L385.4755679139312,29.429231581156262M385.4755679139312,29.429231581156262L438.1287647278001,79.30338786987201M251.96564802015854,281.90262110012924L255.1625685584961,310.15421942775157" style="fill:none;stroke:rgb(0,0,0);stroke-width:1;stroke-linecap:round"/><path d="M-241.8667550395904,-163.71057239408816L-248.49620261411982,-121.95020238944566L-245.2319096409062,-192.96110416503132z" style="fill:rgb(255,128,0)"/><path d="M6.393841615635732,-226.9708753718436L3.196920807817866,-255.22247608089788M153.05308713139024,72.60222393276379L149.8561660540921,141.6235530634402M149.8561660540921,141.6235530634402L149.8561660540921,210.4058984421652" style="fill:none;stroke:rgb(0,0,0);stroke-width:1;stroke-linecap:round"/><path d="M105.25001643288051,-184.7225849606461L108.58325433545943,-155.47676341380142L105.28285755268989,-85.45339430792728z" style="fill:rgb(255,128,0)"/><path d="M210.23881419007284,-231.11787248468L205.6183188776096,-34.24018268573573L210.30397645134437,-64.05686287023273z" style="fill:rgb(10,176,224)"/><path d="M205.7062839452592,25.203464399306018L210.2274127868838,-3.6250834141450006M153.05308713139024,72.60222393276379L205.7062839452592,25.203464399306018M52.653201252201995,-39.05406825382278L105.30640250440399,-86.45283178269764M105.30640250440399,-86.45283178269764L108.50332331222185,-155.47415509531146" style="fill:none;stroke:rgb(0,0,0);stroke-width:1;stroke-linecap:round"/><path d="M106.10427552979927,-87.0486971217523L52.755108797959416,-38.8801118033392L-4.096701378970555,-19.4849965454311z" style="fill:rgb(48,160,255)"/><path d="M341.0092831943029,-21.82697208873412L330.04774649568793,49.08543736777995L254.27139215692202,47.1220789029275z" style="fill:rgb(10,176,224)"/><path d="M379.72822639773,235.5026396831589L329.40256433919893,312.8205139506931L326.00489731522475,283.4886504976808zM-45.709097504259574,-178.9983214954508L-52.33973242291334,-236.9087871887399L-106.17013346599933,-188.41686615205762z" style="fill:rgb(48,160,255)"/><path d="M209.25884251880794,-229.8896209905173L266.05068324746804,-249.44024251215308L341.5358387176437,-247.56811640954416z" style="fill:rgb(10,176,224)"/><path d="M-51.424207486650985,146.18569243361955L19.984228693325907,128.36636312092983M19.984228693325907,128.36636312092983L41.09240151458631,194.82346665424976M-27.95877640893616,76.29091369066303L19.984228693325907,128.36636312092983M19.984228693325907,128.36636312092983L82.27364098352142,134.24223205292935M44.73127523415525,69.79738520416751L19.984228693325907,128.36636312092983" style="fill:none;stroke:rgb(0,0,0);stroke-width:1;stroke-linecap:round"/><path d="M393.6121445437133,-196.79922908994897L390.40020253765215,-226.19246891514138L339.718379649363,-248.05598001913182z" style="fill:rgb(255,192,0)"/><path d="M106.17471892860854,-183.2400757225552L2.7246544820938423,-256.00531593718387L5.997791517155206,-226.67371559736804z" style="fill:rgb(48,160,255)"/><path d="M-241.89984969893544,-164.7066157948982L-245.1665622326098,-93.69556461929909L-248.52845536307117,-122.94677451269982zM-351.46268020756276,-97.37951726563884L-301.06231763953986,-75.17967780692284L-244.22639401193763,-94.8450699767651z" style="fill:rgb(255,128,0)"/><path d="M198.6593029767893,231.27740118801086L252.27813810738374,281.74902313614655L255.50321782410506,311.05887260698205z" style="fill:rgb(48,160,255)"/><path d="M438.1287647278001,79.30338786987201L442.64989356942465,50.474840056421" style="fill:none;stroke:rgb(0,0,0);stroke-width:1;stroke-linecap:round"/><path d="M-105.36302087036341,-189.67333375029884L-105.32937060905628,-90.40415352295157L-102.0298952259744,-160.42763719263436z" style="fill:rgb(255,128,0)"/><path d="M438.1287647278001,245.35866546975956L434.93184365050195,217.10706237927343" style="fill:none;stroke:rgb(0,0,0);stroke-width:1;stroke-linecap:round"/><path d="M-46.47526804355587,-178.656947236704L3.9426491928858907,-255.80557295408443L-53.18302123028041,-236.40738099415535z" style="fill:rgb(48,160,255)"/><path d="M393.2284797406951,-198.6399606745641L390.06370369291545,-59.83087958937647L385.3736990687303,-30.015173140670992z" style="fill:rgb(10,176,224)"/><path d="M330.14716272762905,312.5817043096047L250.99940887009097,281.7095586499893L326.87303817629686,283.16893868695917z" style="fill:rgb(255,128,0)"/><path d="M213.1103516150486,-201.0352110608972L266.9215886675313,-249.7634039976699L209.6973459232029,-230.45096733862704z" style="fill:rgb(255,192,0)"/><path d="M-52.653201252201995,-41.52946521774113L-105.30640250440399,-91.4036257105343M-102.10948169658612,-160.42494902314812L-105.30640250440399,-91.4036257105343" style="fill:none;stroke:rgb(0,0,0);stroke-width:1;stroke-linecap:round"/><path d="M329.15754298148363,-11.056053507581487L390.8478907317789,-59.951482086503596L340.15711633071004,-82.15020047370376zM340.2857271256866,-21.889151995100143L386.2823450657967,29.64414129723073L329.07334901086466,49.228760455308525z" style="fill:rgb(10,176,224)"/><path d="M393.1936178328539,-197.6406367456218L340.5404121423188,-247.51480144249246M340.5404121423188,-247.51480144249246L266.077539554717,-249.265171451764" style="fill:none;stroke:rgb(0,0,0);stroke-width:1;stroke-linecap:round"/><path d="M-52.06849595161662,146.78062671213016L-28.13602384037572,75.44698401324352L20.8057645897311,128.61535851983876z" style="fill:rgb(255,192,0)"/><path d="M-30.316034665390582,212.64279596693947L-51.424207486650985,146.18569243361955M-51.424207486650985,146.18569243361955L-27.95877640893616,76.29091369066303M-86.60931497956274,102.5722402401819L-51.424207486650985,146.18569243361955M-51.424207486650985,146.18569243361955L-87.89093044267726,176.70526113893803" style="fill:none;stroke:rgb(0,0,0);stroke-width:1;stroke-linecap:round"/><path d="M378.11491231488947,236.33811379276563L435.35710559976843,216.44719311705344L438.67031676193955,245.9346445243229z" style="fill:rgb(48,160,255)"/><path d="M-52.35185248362471,146.07399579919402L20.321408814777758,127.76769343362248L41.68286639010818,195.53383297598262z" style="fill:rgb(255,128,0)"/><path d="M330.4163234546363,-11.288040412423328L266.21667876265764,-83.74912024335039L209.29739127040486,-64.09671260313694z" style="fill:rgb(10,176,224)"/><path d="M-266.077539554717,131.84635996245768L-266.077539554717,200.62870534118264M-340.5404121423188,130.09598995318612L-266.077539554717,131.84635996245768M-266.077539554717,131.84635996245768L-210.2274127868838,112.69919552865188M-262.88061847741886,62.82503083178125L-266.077539554717,131.84635996245768M266.077539554717,-249.265171451764L213.42433386418193,-201.86640392747208" style="fill:none;stroke:rgb(0,0,0);stroke-width:1;stroke-linecap:round"/><path d="M-241.58284157958485,-162.87192595862442L-244.79478331597502,-192.26516340275802L-295.4766020356229,-214.12867268353546z" style="fill:rgb(255,192,0)"/><path d="M341.40503358990793,-21.494531325776904L255.22758605900776,47.34115733392433L204.77664499715846,25.16098655816987z" style="fill:rgb(10,176,224)"/><path d="M-242.00136829038763,-163.71333361435683L-245.19828909820546,-94.69201030174304M-245.19828909820546,-94.69201030174304L-294.6545695425896,-116.31457008548198" style="fill:none;stroke:rgb(0,0,0);stroke-width:1;stroke-linecap:round"/><path d="M442.76694818414717,49.48246845442615L434.869277064778,149.32262797019013L438.07427669880155,79.29784850222518zM442.7124602940535,49.4769328858716L434.90854255987927,218.10652687651583L434.89257801649575,148.32315967385549z" style="fill:rgb(10,176,224)"/><path d="M-350.52765022961165,-96.16794277134711L-347.2270087371359,-166.19152718375196L-350.56249503326296,-195.4369991761669z" style="fill:rgb(255,128,0)"/><path d="M394.01987153918884,-197.1086465586085L340.6773188356994,-247.84915631736328L265.1143791550015,-249.46280676390637z" style="fill:rgb(10,176,224)"/><path d="M105.74626639593109,-184.2936389968161L58.09300688720919,-177.22386553032769L109.01749540132329,-154.77912125158375z" style="fill:rgb(48,160,255)"/><path d="M-340.5404121423188,198.8783353319111L-340.5404121423188,130.09598995318612M-389.9966967555558,108.47342834680164L-340.5404121423188,130.09598995318612M-340.5404121423188,130.09598995318612L-337.34349106502066,61.074660822509706" style="fill:none;stroke:rgb(0,0,0);stroke-width:1;stroke-linecap:round"/><path d="M-351.0346741666292,-194.777317874889L-347.6212396240803,-165.3552566506125L-293.8111181492812,-214.08398144725308z" style="fill:rgb(255,192,0)"/><path d="M157.57421597301484,43.77367611931278L153.05308713139024,72.60222393276379M3.1969208078178672,-60.67662803756174L52.653201252201995,-39.05406825382278M149.8561660540921,210.4058984421652L153.05308713139024,238.65750153265134" style="fill:none;stroke:rgb(0,0,0);stroke-width:1;stroke-linecap:round"/><path d="M45.42387159680371,69.29203117920964L20.125914644767807,129.19694815779417L-28.79305872302652,75.96568267875655z" style="fill:rgb(255,192,0)"/><path d="M443.197395143636,50.15137022770878L438.41234976858345,80.14324222757385L384.64448129893646,28.912847052166658zM2.816786697487306,-61.37208736084829L-3.7461421252545533,-19.247268453199403L53.58255667996925,-39.018245911339z" style="fill:rgb(255,128,0)"/><path d="M-350.50469160260946,-97.16740726566135L-347.30777079479157,-166.18873057827517M-294.6545695425896,-116.31457008548198L-350.50469160260946,-97.16740726566135" style="fill:none;stroke:rgb(0,0,0);stroke-width:1;stroke-linecap:round"/><path d="M19.33463637952213,127.84300662021685L83.05498054284249,133.87736460438387L40.960654269069,195.71169060350823z" style="fill:rgb(255,192,0)"/><path d="M44.73127523415525,69.79738520416751L-27.95877640893616,76.29091369066303M-27.95877640893616,76.29091369066303L-44.73127523415525,48.14871937913179M-27.95877640893616,76.29091369066303L-86.60931497956274,102.5722402401819" style="fill:none;stroke:rgb(0,0,0);stroke-width:1;stroke-linecap:round"/><path d="M3.746863164808231,-61.332819989993034L-53.585543205150266,-41.56475670289522L-2.814521211859956,-19.215421996416786z" style="fill:rgb(255,128,0)"/><path d="M108.50332331222185,-155.47415509531146L59.047042867837725,-177.0967148790504" style="fill:none;stroke:rgb(0,0,0);stroke-width:1;stroke-linecap:round"/><path d="M210.15444353113296,-231.1145327996424L213.4409169607593,-132.0843297087689L213.48072002335542,-201.86960698576598z" style="fill:rgb(10,176,224)"/><path d="M-52.01713078606192,145.47616826682923L42.0206328549601,194.93725937510663L-30.651342706353436,213.23852741287297zM-262.47963257649434,61.998109374945564L-265.600901898272,132.36092937451417L-341.41803569968835,130.40834199796532z" style="fill:rgb(255,128,0)"/><path d="M210.2108304439586,-231.11773196820891L210.20444468221763,-63.06325723048855L213.4638843117733,-133.08380578607841z" style="fill:rgb(10,176,224)"/><path d="M-52.653201252201995,-41.52946521774113L3.1969208078178672,-60.67662803756174" style="fill:none;stroke:rgb(0,0,0);stroke-width:1;stroke-linecap:round"/><path d="M200.26487512685938,232.15928217682426L152.605627782211,239.22616795448786L149.35119260603543,209.70640624676312z" style="fill:rgb(48,160,255)"/><path d="M41.09240151458631,194.82346665424976L-30.316034665390582,212.64279596693947M41.09240151458631,194.82346665424976L22.34148694978033,234.65657950120433M83.55525644663594,192.03105487588866L41.09240151458631,194.82346665424976M41.09240151458631,194.82346665424976L82.27364098352142,134.24223205292935" style="fill:none;stroke:rgb(0,0,0);stroke-width:1;stroke-linecap:round"/><path d="M19.29178198717329,128.78052337590768L44.67650910902715,68.90343612936393L83.02085381480214,134.72202087275508z" style="fill:rgb(255,192,0)"/><path d="M-242.00136829038763,-163.71333361435683L-294.6545695425896,-213.58749410715M-294.6545695425896,-213.58749410715L-347.30777079479157,-166.18873057827517" style="fill:none;stroke:rgb(0,0,0);stroke-width:1;stroke-linecap:round"/><path d="M329.88045414214986,-10.993848321831724L341.11780835443625,-81.94505971335202L265.2451303465477,-83.59175964826113z" style="fill:rgb(10,176,224)"/><path d="M-265.2060944581805,131.52463193495436L-340.91470924880804,199.7128529022984L-341.03756013236614,129.58320041030214z" style="fill:rgb(255,128,0)"/><path d="M394.15674456938933,-197.44121500625042L265.9837565161042,-249.79019322374015L212.55499016625924,-201.54080389486722z" style="fill:rgb(10,176,224)"/><path d="M-45.29292810840147,-179.66011218905302L-105.86516617811043,-189.24855293727015L-102.51714955104447,-159.76494547199604z" style="fill:rgb(48,160,255)"/><path d="M393.1936178328539,-197.6406367456218L393.1936178328539,-128.85829136689682M393.1936178328539,-128.85829136689682L389.9966967555558,-59.83696223622039M389.9966967555558,-59.83696223622039L340.5404121423188,-81.45952384260487" style="fill:none;stroke:rgb(0,0,0);stroke-width:1;stroke-linecap:round"/><path d="M106.2592791375938,-183.5977367179013L5.571912090265695,-227.51417095545006L58.91609576001795,-176.6814383819083zM58.84186943606507,-178.0410115696772L52.260134312346295,-38.21822638248217L105.90464287603234,-86.34437696341145z" style="fill:rgb(48,160,255)"/><path d="M330.5911088671431,312.0980671871015L254.710243047974,310.640204527137L251.4523058096355,281.22315825066545z" style="fill:rgb(255,128,0)"/><path d="M-27.342989332646486,75.61327674713084L-51.27231667642911,147.0511819126767L-87.3769928660743,102.38438770465694z" style="fill:rgb(255,192,0)"/><path d="M58.36108085258106,-177.7411044444087L105.51233129012822,-85.50793192012684L108.98335654175429,-155.77466539252396z" style="fill:rgb(48,160,255)"/><path d="M157.6911087797887,42.78127054314541L152.9983570056104,72.59670355233932L149.79400337309812,142.62147902003204zM157.63664475366843,42.775758753715685L149.81656205996708,141.62200499326764L149.83334126756355,211.40536387793492z" style="fill:rgb(10,176,224)"/><path d="M157.1832317013521,43.45938738279296L206.5452128508855,24.68989187767349L152.6051424974267,73.43008519091615z" style="fill:rgb(255,128,0)"/><path d="M-106.1505544235015,-91.8834694923485L-52.761939942583446,-41.019912116849454L4.149811417296836,-60.70633735663922z" style="fill:rgb(48,160,255)"/><path d="M-351.47708006896534,-97.01569889129689L-244.23960464140256,-94.4815597700974L-294.6408655330366,-116.67672899149206zM-265.70601693685535,131.0117393647396L-265.57776773122663,201.1438091302789L-341.4117065836709,199.19785214053294z" style="fill:rgb(255,128,0)"/><path d="M379.29906254571745,235.338865286583L386.0060923187396,293.0960266453872L328.87758049386747,312.4813460933791z" style="fill:rgb(48,160,255)"/><path d="M-262.0028565581205,62.510503623415275L-340.94407929636986,130.92269718023607L-337.81758583026794,60.56248080382573z" style="fill:rgb(255,128,0)"/><path d="M-102.10948169658612,-160.42494902314812L-46.25935963656626,-179.57211184296875" style="fill:none;stroke:rgb(0,0,0);stroke-width:1;stroke-linecap:round"/><path d="M443.4810868918007,50.99248734251815L384.92056398055234,29.749099777559962L389.72050736655854,-0.23683171479558857z" style="fill:rgb(255,128,0)"/><path d="M22.34148694978033,234.65657950120433L-30.316034665390582,212.64279596693947M-30.316034665390582,212.64279596693947L-87.89093044267726,176.70526113893803M-47.785333767082044,224.80590991190306L-30.316034665390582,212.64279596693947" style="fill:none;stroke:rgb(0,0,0);stroke-width:1;stroke-linecap:round"/><path d="M393.20521467996946,-198.6405022406672L393.21692041111135,-128.8577480615627L389.9617973301827,-58.83764004650913z" style="fill:rgb(10,176,224)"/><path d="M27.95877640893616,41.65519089263628L44.73127523415525,69.79738520416751M86.60931497956274,87.09831954976767L44.73127523415525,69.79738520416751M82.27364098352142,134.24223205292935L44.73127523415525,69.79738520416751M213.42433386418193,-201.86640392747208L213.42433386418193,-133.08405854874707" style="fill:none;stroke:rgb(0,0,0);stroke-width:1;stroke-linecap:round"/><path d="M-266.5735937115742,132.50814100507657L-263.2186961624284,61.97984095048585L-209.39328094501718,112.88260436732841z" style="fill:rgb(255,192,0)"/><path d="M210.2274127868838,-64.06272941807065L213.42433386418193,-133.08405854874707M266.077539554717,-83.20989385187642L210.2274127868838,-64.06272941807065" style="fill:none;stroke:rgb(0,0,0);stroke-width:1;stroke-linecap:round"/><path d="M-29.74147331296456,213.38438888360682L-88.70169620412616,176.75757623653263L-51.18800307762811,145.39178441935766z" style="fill:rgb(255,192,0)"/><path d="M83.55525644663594,192.03105487588866L82.27364098352142,134.24223205292935M82.27364098352142,134.24223205292935L86.60931497956274,87.09831954976767" style="fill:none;stroke:rgb(0,0,0);stroke-width:1;stroke-linecap:round"/><path d="M-241.13850195617505,-163.35778911590742L-294.64832788349383,-214.26847032549722L-348.1768787881,-165.86329885837736z" style="fill:rgb(255,128,0)"/><path d="M-105.6062814205523,-90.48865358175567L-45.508991061337596,-180.1521113298596L-102.55997135566646,-160.7599216650359z" style="fill:rgb(48,160,255)"/><path d="M-244.76333375635528,-93.99216106603619L-241.60830135053195,-164.54917548569745L-295.4825918242955,-116.17857744984819z" style="fill:rgb(255,192,0)"/><path d="M-258.35948963579426,33.996483018330224L-262.88061847741886,62.82503083178125M-262.88061847741886,62.82503083178125L-337.34349106502066,61.074660822509706M-210.2274127868838,112.69919552865188L-262.88061847741886,62.82503083178125" style="fill:none;stroke:rgb(0,0,0);stroke-width:1;stroke-linecap:round"/><path d="M378.5307034159978,235.68127305699494L438.9963488156285,245.10236222915415L385.1590067084004,293.5866787719368zM-46.903662732307076,-178.81849533158447L6.8288476833662415,-226.8094356573356L3.406217835828175,-256.1375323067901z" style="fill:rgb(48,160,255)"/><path d="M-266.077539554717,200.62870534118264L-340.5404121423188,198.8783353319111M-266.077539554717,200.62870534118264L-262.88061847741886,228.88030843166882M-210.2274127868838,181.48154090737688L-266.077539554717,200.62870534118264" style="fill:none;stroke:rgb(0,0,0);stroke-width:1;stroke-linecap:round"/><path d="M198.9670843378947,231.12469093372496L255.91052614085265,310.763424181931L205.3036843546314,288.8262185367214z" style="fill:rgb(48,160,255)"/><path d="M-294.6545695425896,-116.31457008548198L-242.00136829038763,-163.71333361435683" style="fill:none;stroke:rgb(0,0,0);stroke-width:1;stroke-linecap:round"/><path d="M394.1637992457166,-197.79859105035015L212.9208390138725,-202.37814079026992L212.9576473016287,-132.41436738122084z" style="fill:rgb(10,176,224)"/><path d="M-340.10463663353033,130.7957862437813L-390.8285701472771,108.60526846835813L-336.9473931820878,60.24302441035805z" style="fill:rgb(255,192,0)"/><path d="M-340.3020180824597,199.81698553746324L-390.69365755601126,107.83190617189489L-340.08184540172243,129.79886192254074z" style="fill:rgb(255,128,0)"/><path d="M-347.64795155566645,-167.03170971335732L-350.99951491264346,-96.50208339927646L-293.8195654716808,-116.13691481678474z" style="fill:rgb(255,192,0)"/><path d="M-337.34349106502066,61.074660822509706L-332.8223622233961,32.24611300905868M-337.34349106502066,61.074660822509706L-389.9966967555558,108.47342834680164" style="fill:none;stroke:rgb(0,0,0);stroke-width:1;stroke-linecap:round"/><path d="M-86.9142136655963,101.68317213775234L-50.72347400816514,146.25798958830345L-88.28676523512955,177.5220320866837z" style="fill:rgb(255,192,0)"/><path d="M-337.34349106502066,227.12993842239726L-340.5404121423188,198.8783353319111M-340.5404121423188,198.8783353319111L-389.9966967555558,177.25577372552664" style="fill:none;stroke:rgb(0,0,0);stroke-width:1;stroke-linecap:round"/><path d="M339.75073095826224,-21.596436780328677L390.5405027264541,0.30837532414975527L385.7214431270894,30.29609896636123z" style="fill:rgb(10,176,224)"/><path d="M-209.38043834576112,181.65124169243978L-266.55394634221,201.29084474653547L-266.44810720834676,131.01451977204198zM156.73525270835168,44.2859082030589L210.681751278789,-4.452716527260934L206.09090871801718,25.518865428675838z" style="fill:rgb(255,128,0)"/><path d="M442.6848230807435,49.47551928114757L438.17222556319615,246.35549042727922L434.85345330378703,217.10955819702727z" style="fill:rgb(10,176,224)"/><path d="M-347.30777079479157,-166.18873057827517L-294.6545695425896,-116.31457008548198" style="fill:none;stroke:rgb(0,0,0);stroke-width:1;stroke-linecap:round"/><path d="M41.79033979815892,194.24946980388395L22.588137868861136,235.30584798780774L-31.260623868044004,212.56752433070199z" style="fill:rgb(255,192,0)"/><path d="M255.1625685584961,310.15421942775157L329.62544114609796,311.9045894370231M329.62544114609796,311.9045894370231L385.4755679139312,292.75742500321735" style="fill:none;stroke:rgb(0,0,0);stroke-width:1;stroke-linecap:round"/><path d="M84.06704447326373,192.49807954918649L40.31017779376716,195.26827198329443L82.54407667771277,133.33040205058688z" style="fill:rgb(255,192,0)"/><path d="M-241.1306272693852,-164.03691725296449L-348.17221332138143,-166.54265161879945L-294.6608680370023,-115.63706540635003zM-209.85440177742987,182.31368725034736L-266.92543014949484,131.6728864783579L-209.75253320155988,112.0405226697812z" style="fill:rgb(255,128,0)"/><path d="M340.5404121423188,-21.02187783867922L389.9966967555558,0.6006837677052432M442.64989356942465,50.474840056421L389.9966967555558,0.6006837677052432" style="fill:none;stroke:rgb(0,0,0);stroke-width:1;stroke-linecap:round"/><path d="M199.75100369306747,231.45958034475734L206.1239855306021,289.3739309780272L152.1968241826033,238.38410443449254z" style="fill:rgb(48,160,255)"/><path d="M205.7062839452592,288.5316578213671L255.1625685584961,310.15421942775157" style="fill:none;stroke:rgb(0,0,0);stroke-width:1;stroke-linecap:round"/><path d="M393.398819038045,-198.5960492162534L339.9633515644427,-80.66854213884879L393.56547720553885,-128.6938606000213z" style="fill:rgb(10,176,224)"/><path d="M59.28545978572876,-178.04703312207678L2.520692328020204,-60.421866914458924L53.09101281410862,-38.3585111338992z" style="fill:rgb(48,160,255)"/><path d="M341.50918021335866,-21.24876661347813L205.1484245699682,25.858357833729603L209.81650409113502,-4.053088073769677z" style="fill:rgb(10,176,224)"/><path d="M28.126771972914536,40.96065060958892L45.48553719073162,70.18546716249585L-28.881033929490904,76.59737201538206z" style="fill:rgb(255,128,0)"/><path d="M393.5875526059964,-129.6923174697239L339.709007943713,-81.32143800713335L390.43416618101907,-59.141021968864834z" style="fill:rgb(255,192,0)"/><path d="M340.5404121423188,-81.45952384260487L393.1936178328539,-128.85829136689682" style="fill:none;stroke:rgb(0,0,0);stroke-width:1;stroke-linecap:round"/><path d="M-27.246105200341702,76.51571444605052L-87.37187468764348,103.17191730401889L-44.681386734668955,47.32424155990732z" style="fill:rgb(255,192,0)"/><path d="M-46.25935963656626,-179.57211184296875L6.393841615635732,-226.9708753718436M6.393841615635732,-226.9708753718436L59.047042867837725,-177.0967148790504" style="fill:none;stroke:rgb(0,0,0);stroke-width:1;stroke-linecap:round"/><path d="M82.4775836631196,135.17198430335384L44.01875156122363,69.17137453711113L87.11789597289618,86.79457796639956z" style="fill:rgb(255,192,0)"/><path d="M-106.26021240297815,-91.37698913078735L3.6583822845641896,-60.04077591737509L6.886190037463579,-130.3604400501092z" style="fill:rgb(48,160,255)"/><path d="M-210.2274127868838,181.48154090737688L-210.2274127868838,112.69919552865188M-210.2274127868838,112.69919552865188L-205.7062839452592,83.87064771520086" style="fill:none;stroke:rgb(0,0,0);stroke-width:1;stroke-linecap:round"/><path d="M394.0352007200756,-198.1448186107379L212.58865076499646,-133.2566810629614L266.0716397666808,-82.533089472546z" style="fill:rgb(10,176,224)"/><path d="M-86.60931497956274,102.5722402401819L-87.89093044267726,176.70526113893803M-82.27364098352142,94.42412746520549L-86.60931497956274,102.5722402401819M-86.60931497956274,102.5722402401819L-44.73127523415525,48.14871937913179" style="fill:none;stroke:rgb(0,0,0);stroke-width:1;stroke-linecap:round"/><path d="M-106.05685950838969,-90.82553619843927L7.231908370752696,-129.51847511883236L-46.34696938769752,-180.329677586407z" style="fill:rgb(48,160,255)"/><path d="M213.08415310333385,-133.92703768385752L209.73258947674043,-63.3974055519969L266.9125436257085,-83.03223858283972z" style="fill:rgb(255,192,0)"/><path d="M210.2274127868838,-3.6250834141450006L266.077539554717,-22.772247847950783M210.2274127868838,-3.6250834141450006L157.57421597301484,43.77367611931278" style="fill:none;stroke:rgb(0,0,0);stroke-width:1;stroke-linecap:round"/><path d="M393.77069727253013,-198.43099248648144L265.2060201386984,-82.88482720737953L340.83485211866116,-80.99423474624213zM157.60879961562426,42.77434270263574L149.77540399655712,210.40869504762802L153.09926554631582,239.65403834386564z" style="fill:rgb(10,176,224)"/><path d="M21.718163534683413,235.3946141033953L40.80612020368745,194.398733541468L84.46486117263171,191.71775338647953z" style="fill:rgb(255,192,0)"/><path d="M-257.8095599135622,33.33887716671273L-262.4583131278289,63.33407218459915L-338.31572613684267,61.22322532130933z" style="fill:rgb(255,128,0)"/><path d="M213.42433386418193,-133.08405854874707L266.077539554717,-83.20989385187642" style="fill:none;stroke:rgb(0,0,0);stroke-width:1;stroke-linecap:round"/><path d="M-341.5060798541841,198.6848575583029L-265.6252140456635,200.14272024193755L-262.3672762746071,229.55977130452214z" style="fill:rgb(255,128,0)"/><path d="M-87.89093044267726,176.70526113893803L-83.55525644663594,168.5571483639616M-87.89093044267726,176.70526113893803L-47.785333767082044,224.80590991190306M-385.4755679139312,79.64488053335062L-389.9966967555558,108.47342834680164M-389.9966967555558,108.47342834680164L-389.9966967555558,177.25577372552664M6.393841615635732,-129.69795135017554L3.1969208078178672,-60.67662803756174" style="fill:none;stroke:rgb(0,0,0);stroke-width:1;stroke-linecap:round"/><path d="M59.90990920205032,-176.74117038060098L6.400083274731531,-227.6518515901908L-47.128467629874656,-179.24668012307095z" style="fill:rgb(255,128,0)"/><path d="M442.64989356942465,50.474840056421L445.8468146467228,78.72644314690714" style="fill:none;stroke:rgb(0,0,0);stroke-width:1;stroke-linecap:round"/><path d="M-339.8420520903564,199.51713881557092L-390.45816487249505,177.55546638741836L-390.2335886905789,107.5349322012501z" style="fill:rgb(255,128,0)"/><path d="M-29.480391083056816,212.61999151274355L-47.878542129963066,225.47817084916798L-88.63336566213,176.0558046558691z" style="fill:rgb(255,192,0)"/><path d="M28.881993610537737,41.34896620102123L-28.134441305770537,76.9875603842792L-45.478827538922445,47.75829737713065z" style="fill:rgb(255,128,0)"/><path d="M442.64989356942465,216.5301176563086L438.1287647278001,245.35866546975956M438.1287647278001,245.35866546975956L385.4755679139312,292.75742500321735" style="fill:none;stroke:rgb(0,0,0);stroke-width:1;stroke-linecap:round"/><path d="M86.66991764320169,86.10065689675096L83.5515765065889,193.03072514459777L82.21671825992951,134.24022443723698z" style="fill:rgb(255,128,0)"/><path d="M59.047042867837725,-177.0967148790504L6.393841615635732,-129.69795135017554" style="fill:none;stroke:rgb(0,0,0);stroke-width:1;stroke-linecap:round"/><path d="M-263.71181178612005,62.30738350853112L-205.15128002567704,83.5507795559309L-209.95122339776472,113.53671101117199z" style="fill:rgb(255,128,0)"/><path d="M-48.69101029174526,225.02350587934342L-30.365564085433153,212.1608225500913L23.296692894486117,234.9209569506123zM27.309062776954597,40.91855059269986L87.46612292869469,87.59680431545199L44.52418091700486,70.0355407384196z" style="fill:rgb(255,192,0)"/><path d="M266.077539554717,-83.20989385187642L340.5404121423188,-81.45952384260487" style="fill:none;stroke:rgb(0,0,0);stroke-width:1;stroke-linecap:round"/><path d="M-266.6081352846233,200.29418755558737L-209.38190936604536,180.98588730331423L-263.1955261683511,229.71047982132677z" style="fill:rgb(255,192,0)"/><path d="M6.393841615635732,-129.69795135017554L-46.25935963656626,-179.57211184296875" style="fill:none;stroke:rgb(0,0,0);stroke-width:1;stroke-linecap:round"/><path d="M59.63489312177073,-177.88206078080003L6.042781988100379,-129.8630041029093L2.9601301814202157,-59.72622938307837z" style="fill:rgb(48,160,255)"/><path d="M-385.866552170393,79.33059183540199L-336.5045621745761,60.56108826200021L-390.44464138953845,109.30128960525977zM59.917783888840155,-177.42029851765804L-47.123802163156064,-179.92603288349304L6.387543121223103,-129.0204466710436z" style="fill:rgb(255,128,0)"/><path d="M22.34148694978033,234.65657950120433L47.785333767082044,207.5067485345975M-47.785333767082044,224.80590991190306L22.34148694978033,234.65657950120433M22.34148694978033,234.65657950120433L83.55525644663594,192.03105487588866M87.89093044267726,144.887142372727L83.55525644663594,192.03105487588866M83.55525644663594,192.03105487588866L47.785333767082044,207.5067485345975" style="fill:none;stroke:rgb(0,0,0);stroke-width:1;stroke-linecap:round"/><path d="M-340.1375453538792,198.57959379901018L-336.9257894794219,227.97221157878965L-390.81726512959415,176.7122421020352z" style="fill:rgb(255,192,0)"/><path d="M160.771137050313,72.02527920979892L157.57421597301484,43.77367611931278M-205.7062839452592,152.65299309392586L-210.2274127868838,181.48154090737688M-262.88061847741886,228.88030843166882L-210.2274127868838,181.48154090737688M153.05308713139024,238.65750153265134L157.57421597301484,209.82895371920034M205.7062839452592,288.5316578213671L153.05308713139024,238.65750153265134M-44.73127523415525,48.14871937913179L27.95877640893616,41.65519089263628M-82.27364098352142,94.42412746520549L-44.73127523415525,48.14871937913179M-44.73127523415525,48.14871937913179L-19.9842286933259,61.30419666901975" style="fill:none;stroke:rgb(0,0,0);stroke-width:1;stroke-linecap:round"/><path d="M-86.62539935798138,101.57292674701691L-88.12401851126522,177.65197978006603L-83.30608399962934,168.60974321599858zM-257.3867060118806,33.84822717492718L-337.90135044031166,61.729554256933284L-333.23728647201875,31.739475418038175zM-341.06213371460206,198.20122043552195L-261.9143793365506,229.07337090577073L-337.78800863360567,227.61399084468454zM-205.60529716343956,82.87728141320257L-210.25071387750648,182.48100540461925L-210.30509847808077,112.69309733340782z" style="fill:rgb(255,128,0)"/><path d="M341.53586184661503,-21.0756558038088L209.25856626251215,-3.3975491192927945L266.05093637479246,-22.946004177673416z" style="fill:rgb(10,176,224)"/><path d="M-263.4281200380628,63.1485006230891L-258.6430746769062,33.15662866097141L-204.87519734350332,84.38703228125185z" style="fill:rgb(255,128,0)"/><path d="M-82.35438023314863,94.37069585155618L-44.11127193266814,47.36422410995512L-87.14857903142263,103.41016712300787z" style="fill:rgb(255,192,0)"/><path d="M442.6616321816131,49.474977870429804L442.72869441809416,216.53636627529892L438.03822526694216,246.35227903676048z" style="fill:rgb(10,176,224)"/><path d="M385.4755679139312,292.75742500321735L389.9966967555558,263.92887718976635M86.60931497956274,87.09831954976767L87.89093044267726,144.887142372727M86.60931497956274,87.09831954976767L51.424207486650985,82.48066708451525M27.95877640893616,41.65519089263628L86.60931497956274,87.09831954976767M-389.9966967555558,177.25577372552664L-385.4755679139312,148.4272259120756M-389.9966967555558,177.25577372552664L-337.34349106502066,227.12993842239726" style="fill:none;stroke:rgb(0,0,0);stroke-width:1;stroke-linecap:round"/><path d="M-386.3145311637948,80.1571126560183L-332.3680237314909,31.418479895942756L-336.95886630706224,61.39006181295797zM-385.3748105702028,78.65146088117854L-390.0747311848031,108.46739104496237L-390.0194196700368,178.25523067953796zM443.02601578106965,215.63595391567884L384.80439925736397,293.4924428006137L438.4238111727223,245.51781141299304z" style="fill:rgb(255,128,0)"/><path d="M51.424207486650985,82.48066708451525L27.95877640893616,41.65519089263628M27.95877640893616,41.65519089263628L-19.9842286933259,61.30419666901975M266.077539554717,-22.772247847950783L340.5404121423188,-21.02187783867922M340.5404121423188,-21.02187783867922L343.73733268065644,7.229720488943088" style="fill:none;stroke:rgb(0,0,0);stroke-width:1;stroke-linecap:round"/><path d="M395.950290462643,57.67181084198926L443.50968535663714,50.7457997132578L389.5771528768917,-0.2382015453070867z" style="fill:rgb(48,160,255)"/><path d="M210.2274127868838,259.7031100079161L205.7062839452592,288.5316578213671" style="fill:none;stroke:rgb(0,0,0);stroke-width:1;stroke-linecap:round"/><path d="M-88.44731680521922,176.76193232630476L-47.196430888597526,225.6115936718006L-83.5877729625785,167.69479341669737z" style="fill:rgb(255,192,0)"/><path d="M341.0082327264747,241.50110709329047L254.2712124063959,310.45568283429753L330.0489767140422,312.40833452056853z" style="fill:rgb(10,176,224)"/><path d="M21.59018220259288,235.30799233416863L84.42396879416734,191.54564080289177L47.66792616673809,207.34074977463018z" style="fill:rgb(255,192,0)"/><path d="M-22.34148694978032,197.6560789452962L-47.785333767082044,224.80590991190306M-83.55525644663594,168.5571483639616L-47.785333767082044,224.80590991190306" style="fill:none;stroke:rgb(0,0,0);stroke-width:1;stroke-linecap:round"/><path d="M86.61280477531236,86.09865496619078L87.94841050936701,144.88917651395505L83.49428658419657,193.0286853182375z" style="fill:rgb(255,128,0)"/><path d="M269.2744600930546,5.479350479671544L266.077539554717,-22.772247847950783M-332.8223622233961,32.24611300905868L-258.35948963579426,33.996483018330224M-255.1625685584961,62.24808610881638L-258.35948963579426,33.996483018330224M-258.35948963579426,33.996483018330224L-205.7062839452592,83.87064771520086" style="fill:none;stroke:rgb(0,0,0);stroke-width:1;stroke-linecap:round"/><path d="M157.58561737620388,42.77381065259097L152.96512206374064,239.65150045153524L157.6507796374754,209.83482026703828z" style="fill:rgb(10,176,224)"/><path d="M-337.34349106502066,227.12993842239726L-262.88061847741886,228.88030843166882M-262.88061847741886,228.88030843166882L-258.35948963579426,200.0517606182178" style="fill:none;stroke:rgb(0,0,0);stroke-width:1;stroke-linecap:round"/><path d="M-86.8686234078647,102.51347185754545L-83.54056919973844,169.55654259444938L-82.02901980211695,93.48350161735414z" style="fill:rgb(255,128,0)"/><path d="M-332.8223622233961,32.24611300905868L-329.62544114609796,60.49771609954484M-385.4755679139312,79.64488053335062L-332.8223622233961,32.24611300905868M-332.8223622233961,198.30139060894624L-337.34349106502066,227.12993842239726" style="fill:none;stroke:rgb(0,0,0);stroke-width:1;stroke-linecap:round"/><path d="M396.7376058055802,58.00741837991425L390.40020253765215,0.3004546886718289L339.7898389258337,-21.625181953746317z" style="fill:rgb(48,160,255)"/><path d="M157.39169068603792,208.90790365308547L152.6106621037632,238.80969527249826L206.33123425986318,289.3005141476351z" style="fill:rgb(255,128,0)"/><path d="M-45.670858934116936,47.95768961478515L-20.00395722531932,61.7319577241022L28.918088640891263,41.41845960190047z" style="fill:rgb(255,192,0)"/><path d="M217.1715165289051,53.451908389491145L210.54088161601084,-4.458557341985192L156.71048501750224,44.033359661625305z" style="fill:rgb(48,160,255)"/><path d="M340.28490951366274,241.43935042172274L329.0762198285575,312.56422641753045L386.2802918601277,292.9647531843691z" style="fill:rgb(10,176,224)"/><path d="M27.31409776839354,40.91580889067571L51.176917371232896,82.85470417657757L87.50128373552344,87.4636644596659z" style="fill:rgb(255,192,0)"/><path d="M23.221877244981922,235.04398345279515L-22.389615416849495,196.96779918286478L-48.61759559521446,225.10678572274375zM-205.6829841677508,82.87119088987153L-205.62748309658969,152.65924171291618L-210.32951341306173,182.4747491137159z" style="fill:rgb(255,128,0)"/><path d="M216.40534598126104,53.79328260098648L266.8232679540499,-23.35534471157185L209.6975928088094,-3.957151147546919z" style="fill:rgb(48,160,255)"/><path d="M341.40405899615416,241.83211175174287L204.77394199241377,288.4963663359738L255.23126365750622,310.6637147447838z" style="fill:rgb(10,176,224)"/><path d="M-209.38998599776951,180.96629887247735L-258.7559072833169,199.7366724686837L-263.32162761901054,229.71063861610244z" style="fill:rgb(255,128,0)"/><path d="M88.2042167673947,143.96800179606575L47.05819504246388,208.12958293246885L83.96910884653667,192.3273610546786z" style="fill:rgb(255,192,0)"/><path d="M442.5770916861574,49.47828588547287L445.9034469623774,78.72327250001231L445.8629842143354,148.5085133434751zM442.6334501188627,49.47511120275819L445.8867011550408,147.50906628199021L442.6264505116686,217.52956875361332z" style="fill:rgb(10,176,224)"/><path d="M-19.100552438606684,61.305495165854474L-44.860971634662896,47.52314845445689L-83.02762083773298,95.04839989304567z" style="fill:rgb(255,192,0)"/><path d="M-205.7062839452592,83.87064771520086L-205.7062839452592,152.65299309392586M-205.7062839452592,83.87064771520086L-255.1625685584961,62.24808610881638" style="fill:none;stroke:rgb(0,0,0);stroke-width:1;stroke-linecap:round"/><path d="M341.5082293418301,-21.18624663954061L265.5128311078628,-23.279775003762882L268.87135134039755,6.151246436345022zM-332.27436789321564,197.98035300706152L-390.8298492165798,176.74019411851552L-337.0583329341771,227.96655563129315zM443.3209218695096,215.79515808150325L389.6971417109782,263.7686209799496L385.1040946584238,293.65264078783946z" style="fill:rgb(255,128,0)"/><path d="M-83.55525644663594,168.5571483639616L-82.27364098352142,94.42412746520549M-41.09240151458631,126.76893685741528L-82.27364098352142,94.42412746520549M-19.9842286933259,61.30419666901975L-82.27364098352142,94.42412746520549" style="fill:none;stroke:rgb(0,0,0);stroke-width:1;stroke-linecap:round"/><path d="M395.4378284510964,56.97699821871052L446.36865137506146,79.42266394324177L443.08076676118105,49.90550622718957z" style="fill:rgb(48,160,255)"/><path d="M-385.45282211508294,78.64541615903781L-390.09639038946995,178.24934212934963L-385.39862007886524,148.43312188256544z" style="fill:rgb(255,128,0)"/><path d="M87.09611950513359,86.66346106956684L50.67385156822728,81.98528559888712L88.15448183553012,145.81738233855597z" style="fill:rgb(255,192,0)"/><path d="M-254.64052668585143,62.9266034734714L-257.9157812344687,33.50807621989617L-333.7881124973664,32.05600244283776zM-257.8099437668847,199.3955070606491L-338.31635554373753,227.28149478262668L-262.45729986761154,229.38500562900813zM22.383404965944635,235.3418458742971L48.622769745392354,207.20862248560303L-23.22084094425494,197.26893862119798z" style="fill:rgb(255,128,0)"/><path d="M-385.4755679139312,148.4272259120756L-385.4755679139312,79.64488053335062M-329.62544114609796,60.49771609954484L-385.4755679139312,79.64488053335062" style="fill:none;stroke:rgb(0,0,0);stroke-width:1;stroke-linecap:round"/><path d="M-255.566385919362,62.544831507461296L-204.88435441995594,84.41394329887814L-258.77760180023165,33.15644203600806z" style="fill:rgb(255,192,0)"/><path d="M445.8468146467228,78.72644314690714L445.8468146467228,147.50878852563213M396.39053837119144,57.10388518581373L445.8468146467228,78.72644314690714M445.8468146467228,147.50878852563213L442.64989356942465,216.5301176563086M389.9966967555558,263.92887718976635L442.64989356942465,216.5301176563086" style="fill:none;stroke:rgb(0,0,0);stroke-width:1;stroke-linecap:round"/><path d="M-21.54808949859864,197.50583497031627L-84.27680681079855,167.9216370681948L-47.85718085410111,225.59166518264982z" style="fill:rgb(255,192,0)"/><path d="M-209.83752355967232,181.7978014315513L-205.2586921442695,151.82286439424155L-259.19697066399544,200.56562879372768z" style="fill:rgb(255,128,0)"/><path d="M52.15268244638969,83.0564969496336L28.17042904301744,41.02765970498123L-20.924356287145887,61.355897991556446z" style="fill:rgb(255,192,0)"/><path d="M-83.55525644663594,168.5571483639616L-41.09240151458631,126.76893685741528M-22.34148694978032,197.6560789452962L-83.55525644663594,168.5571483639616" style="fill:none;stroke:rgb(0,0,0);stroke-width:1;stroke-linecap:round"/><path d="M157.501246717264,42.777150337628555L160.78772014689036,141.80735342850207L160.8275232094865,72.02207615150498zM157.55763363008964,42.77395116906203L157.55124786834867,210.82842590678243L160.81068749790438,140.80787735119256z" style="fill:rgb(10,176,224)"/><path d="M51.424207486650985,82.48066708451525L87.89093044267726,144.887142372727M30.316034665390582,147.94540727291078L87.89093044267726,144.887142372727M87.89093044267726,144.887142372727L47.785333767082044,207.5067485345975" style="fill:none;stroke:rgb(0,0,0);stroke-width:1;stroke-linecap:round"/><path d="M-329.0954585821429,60.834702686912586L-332.5088933939458,31.412639081573502L-386.31901930733653,80.14136787346803z" style="fill:rgb(255,192,0)"/><path d="M156.949031703051,209.05994828911977L205.89509857307274,289.45299319929416L210.66378242903411,259.5507800600696z" style="fill:rgb(255,128,0)"/><path d="M217.58768592482122,52.790117696236265L157.01545230609673,43.20167287587394L160.36346919492942,72.68528276096498z" style="fill:rgb(48,160,255)"/><path d="M-331.9893212734089,198.81571785381811L-385.7680161225028,147.58838504562456L-390.53728949697137,177.58028734710584z" style="fill:rgb(255,128,0)"/><path d="M47.785333767082044,207.5067485345975L-22.34148694978032,197.6560789452962M47.785333767082044,207.5067485345975L30.316034665390582,147.94540727291078" style="fill:none;stroke:rgb(0,0,0);stroke-width:1;stroke-linecap:round"/><path d="M340.95265926841427,-21.69295931593519L268.30592463644217,5.643108381471344L344.2936210111734,7.737044064399252z" style="fill:rgb(255,128,0)"/><path d="M-83.91993087170977,169.40779050195223L-40.3399105157435,126.72333328458768L-82.66145755729039,93.61908890004244z" style="fill:rgb(255,192,0)"/><path d="M-255.8612219586824,61.610420490604255L-205.46458431401737,153.59164276702336L-205.24933017631474,83.56966366031553z" style="fill:rgb(255,128,0)"/><path d="M160.771137050313,140.8076245885239L160.771137050313,72.02527920979892M160.771137050313,72.02527920979892L216.62125440251953,52.878118003963486M-255.1625685584961,131.03043148754136L-205.7062839452592,152.65299309392586M-205.7062839452592,152.65299309392586L-258.35948963579426,200.0517606182178M157.57421597301484,209.82895371920034L160.771137050313,140.8076245885239M157.57421597301484,209.82895371920034L210.2274127868838,259.7031100079161" style="fill:none;stroke:rgb(0,0,0);stroke-width:1;stroke-linecap:round"/><path d="M397.0453755171043,57.85336401335608L340.1892305221688,-21.924969199992766L343.4336771548936,7.383333022714282z" style="fill:rgb(48,160,255)"/><path d="M51.424207486650985,82.48066708451525L-19.9842286933259,61.30419666901975M-19.9842286933259,61.30419666901975L-41.09240151458631,126.76893685741528" style="fill:none;stroke:rgb(0,0,0);stroke-width:1;stroke-linecap:round"/><path d="M339.7487298643957,241.7349508638787L385.73712968993607,293.62573438369805L390.52681725747397,263.6319325287888z" style="fill:rgb(10,176,224)"/><path d="M-254.19625532208516,62.437850143806706L-333.3526621246636,31.570028131510156L-330.0614544812414,60.984036942103046z" style="fill:rgb(255,128,0)"/><path d="M-19.390156542794468,60.593315934482035L-83.11100055674336,94.35345516915604L-40.849114091895785,127.55048988800249z" style="fill:rgb(255,192,0)"/><path d="M-257.38717892466724,199.89982764141058L-333.25317599107126,197.7944311445114L-337.88498800847253,227.78883086363936z" style="fill:rgb(255,128,0)"/><path d="M29.67598120671995,147.4914609532536L47.65852027491329,208.40894115034143L88.65779739351665,144.43889607664022z" style="fill:rgb(255,192,0)"/><path d="M30.316034665390582,147.94540727291078L51.424207486650985,82.48066708451525" style="fill:none;stroke:rgb(0,0,0);stroke-width:1;stroke-linecap:round"/><path d="M215.97695129269985,53.63173450618695L269.70946616139565,5.640790194101494L266.28683659619566,-23.687304064604202z" style="fill:rgb(48,160,255)"/><path d="M389.9966967555558,263.92887718976635L340.5404121423188,242.30631558338186" style="fill:none;stroke:rgb(0,0,0);stroke-width:1;stroke-linecap:round"/><path d="M341.5085969323695,242.07685353282463L209.8011131913337,259.27409932960205L205.16439875075852,289.1901305502384z" style="fill:rgb(10,176,224)"/><path d="M29.662664777716227,148.44759818413485L88.64512836125726,145.2907661504096L51.32337945574533,81.57485239560854z" style="fill:rgb(255,192,0)"/><path d="M-385.4755679139312,148.4272259120756L-329.62544114609796,129.28006147826983M-332.8223622233961,198.30139060894624L-385.4755679139312,148.4272259120756" style="fill:none;stroke:rgb(0,0,0);stroke-width:1;stroke-linecap:round"/><path d="M395.6918849946794,56.466219554677764L446.0885142541034,148.44743821168979L446.3037684158542,78.42545909198545z" style="fill:rgb(255,128,0)"/><path d="M-21.761770453632938,198.3535262622123L-40.86644459918596,125.93227344078454L-84.36092985818367,168.69636446367625z" style="fill:rgb(255,192,0)"/><path d="M445.8468146467228,147.50878852563213L396.39053837119144,125.88623056453872" style="fill:none;stroke:rgb(0,0,0);stroke-width:1;stroke-linecap:round"/><path d="M-41.695886962038,127.46100531249834L52.3551935663088,82.40478564401549L-20.31172932553201,60.688009654436485z" style="fill:rgb(255,128,0)"/><path d="M48.42113263410457,208.0565277404389L30.536781653763704,147.12016163643025L-23.198032805175977,197.93154537593531z" style="fill:rgb(255,192,0)"/><path d="M-385.84958421437193,78.81304954172293L-385.9472341722655,149.09315041523556L-328.7797585873229,129.44596796673756z" style="fill:rgb(255,128,0)"/><path d="M-41.09240151458631,126.76893685741528L-22.34148694978032,197.6560789452962M-22.34148694978032,197.6560789452962L30.316034665390582,147.94540727291078M396.39053837119144,57.10388518581373L343.73733268065644,7.229720488943088M343.73733268065644,7.229720488943088L269.2744600930546,5.479350479671544M266.077539554717,240.55594557411032L210.2274127868838,259.7031100079161" style="fill:none;stroke:rgb(0,0,0);stroke-width:1;stroke-linecap:round"/><path d="M396.1853649645787,124.94193386099876L389.60362981584103,264.764719061262L443.24813391575213,216.6385724883529zM395.7045763812175,125.24184098621679L442.85582232957364,217.475017531751L446.32684787654773,147.20827822851166z" style="fill:rgb(48,160,255)"/><path d="M-386.32217549603,79.47519070529745L-329.2490016285062,130.11220103650837L-329.15527308159085,59.835266369359445z" style="fill:rgb(255,128,0)"/><path d="M269.2744600930546,5.479350479671544L216.62125440251953,52.878118003963486M-255.1625685584961,62.24808610881638L-329.62544114609796,60.49771609954484M-255.1625685584961,131.03043148754136L-255.1625685584961,62.24808610881638M-258.35948963579426,200.0517606182178L-332.8223622233961,198.30139060894624M-258.35948963579426,200.0517606182178L-255.1625685584961,131.03043148754136" style="fill:none;stroke:rgb(0,0,0);stroke-width:1;stroke-linecap:round"/><path d="M-42.022692528470934,126.8428023469992L30.645423902549375,148.56454218425313L52.02510926337682,81.787666683589zM217.36247612283844,52.29401348127623L160.29471405302507,71.68744225732802L160.506338327282,141.72956606368206z" style="fill:rgb(255,128,0)"/><path d="M397.2167920775264,57.63587537282702L343.874239374037,6.89536561407223L268.31129969333904,5.281715167529112z" style="fill:rgb(10,176,224)"/><path d="M-255.40282694705542,61.309593341798646L-255.6223864201867,131.33404530149386L-205.0062076950093,153.28787204699114z" style="fill:rgb(255,128,0)"/><path d="M-255.59752390034922,130.33058225184126L-258.75255657579095,200.88760248940338L-204.87826166340943,152.5170004584404z" style="fill:rgb(255,192,0)"/><path d="M-329.62544114609796,60.49771609954484L-329.62544114609796,129.28006147826983" style="fill:none;stroke:rgb(0,0,0);stroke-width:1;stroke-linecap:round"/><path d="M-41.69964125834416,126.1434479168591L-22.575124261335066,198.48487946068423L31.15691172070317,147.74209569807894z" style="fill:rgb(255,192,0)"/><path d="M-329.62544114609796,129.28006147826983L-332.8223622233961,198.30139060894624M216.62125440251953,121.66046338268848L160.771137050313,140.8076245885239M-41.09240151458631,126.76893685741528L30.316034665390582,147.94540727291078" style="fill:none;stroke:rgb(0,0,0);stroke-width:1;stroke-linecap:round"/><path d="M216.92217371789957,120.74553742681766L156.93065751604956,209.9030291786184L210.57005192846904,260.5439605043689z" style="fill:rgb(48,160,255)"/><path d="M-329.1287242003262,128.61847422286937L-386.31363466887336,148.24774968054564L-332.4810124142257,199.1424540958767z" style="fill:rgb(255,192,0)"/><path d="M397.3536651077269,57.30330692518513L269.1806770544418,4.954328707695303L215.75191070459684,53.20371803656832z" style="fill:rgb(10,176,224)"/><path d="M217.3726149510782,121.08297806232245L160.31792394567128,140.47016651325563L157.2760685290979,210.74389711483465z" style="fill:rgb(48,160,255)"/><path d="M-333.7000602077328,198.6171155944772L-257.8791473690792,200.56312951736277L-254.76521284087443,130.20333760286547z" style="fill:rgb(255,128,0)"/><path d="M396.39053837119144,125.88623056453872L396.39053837119144,57.10388518581373" style="fill:none;stroke:rgb(0,0,0);stroke-width:1;stroke-linecap:round"/><path d="M-254.29120012129465,61.92519770023131L-330.1289359964074,59.985979236746935L-329.99331473299,130.1146867496528zM396.15028000610107,56.1653924059369L395.9307205092178,126.189844379154L446.5468908737868,148.1436674908937zM-254.79188769929502,61.4135621730434L-330.49696056211656,129.60512812276673L-254.66173000167862,131.5398887788175z" style="fill:rgb(255,128,0)"/><path d="M396.62895530501646,124.9359123291307L339.8641836468017,242.56107669850357L390.4345083172479,264.62443431005266z" style="fill:rgb(48,160,255)"/><path d="M-333.222434444449,199.1282701803309L-254.28473202443973,130.71256638685625L-330.10320545910145,128.77104700757033z" style="fill:rgb(255,128,0)"/><path d="M216.62125440251953,52.878118003963486L216.62125440251953,121.66046338268848" style="fill:none;stroke:rgb(0,0,0);stroke-width:1;stroke-linecap:round"/><path d="M341.53586628318,242.25182103991915L266.0501727657909,240.38064627279246L209.25932543494878,259.93290385269665z" style="fill:rgb(10,176,224)"/><path d="M216.88785555775075,51.95606126493096L160.0309400804529,141.39431787546667L217.0948502171484,121.99582683477826z" style="fill:rgb(255,128,0)"/><path d="M397.36071978405414,56.945930881085395L216.1177595522101,52.3663811411656L216.1545678399663,122.3301545502147z" style="fill:rgb(10,176,224)"/><path d="M-329.62544114609796,129.28006147826983L-255.1625685584961,131.03043148754136" style="fill:none;stroke:rgb(0,0,0);stroke-width:1;stroke-linecap:round"/><path d="M216.4513359845777,120.69977146003261L209.73258947674043,260.3684338739899L266.74228128280225,240.85131363069246z" style="fill:rgb(48,160,255)"/><path d="M340.5404121423188,242.30631558338186L266.077539554717,240.55594557411032M343.73733268065644,173.28499808883066L340.5404121423188,242.30631558338186" style="fill:none;stroke:rgb(0,0,0);stroke-width:1;stroke-linecap:round"/><path d="M396.5957395763826,56.14847271518215L343.1602721027803,174.0759797925867L396.7623977438764,126.05066133141423z" style="fill:rgb(10,176,224)"/><path d="M266.077539554717,240.55594557411032L269.2744600930546,171.5346280795591M343.73733268065644,173.28499808883066L396.39053837119144,125.88623056453872" style="fill:none;stroke:rgb(0,0,0);stroke-width:1;stroke-linecap:round"/><path d="M397.23212125841314,56.599703320697635L215.78557130333405,121.48784086847414L269.26856030501835,172.21143245888953z" style="fill:rgb(10,176,224)"/><path d="M396.9783886408869,125.1008846703497L343.386273052902,173.11994533608788L340.30362150037774,243.25671423031363z" style="fill:rgb(48,160,255)"/><path d="M396.9676178108677,56.3135294449541L268.402940677036,171.859694724056L344.0317726569988,173.75028718519337z" style="fill:rgb(10,176,224)"/><path d="M341.3950790091349,242.66934460208265L268.94014566814036,170.68272620062135L265.55718711281514,241.0448184343473z" style="fill:rgb(255,128,0)"/><path d="M216.62125440251953,121.66046338268848L269.2744600930546,171.5346280795591" style="fill:none;stroke:rgb(0,0,0);stroke-width:1;stroke-linecap:round"/><path d="M216.06539534574512,120.85583841368695L266.2479679452445,241.51713215054258L269.6598907593015,171.37806647212835z" style="fill:rgb(48,160,255)"/><path d="M340.87197457580294,243.1581866139866L344.2603963212346,172.79392929586746L268.4198340189923,171.17382584191753z" style="fill:rgb(255,128,0)"/><path d="M269.2744600930546,171.5346280795591L343.73733268065644,173.28499808883066" style="fill:none;stroke:rgb(0,0,0);stroke-width:1;stroke-linecap:round"/></svg>