<svg xmlns="http://www.w3.org/2000/svg" viewBox="-500 -300 900 700" width="400" height="400" style="background-color: rgb(255, 255, 255);"><path d="M-7.013552688317154,-21.65290039746813L93.19466407220733,-28.756940872351095M-78.74390101604496,49.35859776005536L-7.013552688317154,-21.65290039746813M22.279759283703353,-113.68957524391313L-7.013552688317154,-21.65290039746813" style="fill:none;stroke:rgb(0,0,0);stroke-opacity:1;stroke-width:2;stroke-linecap:round"/><path d="M-79.36297445447903,50.13499141885807L22.69534704229706,-114.59086239711799L-6.810067008476774,-21.528006903065986z" style="fill:rgb(48,160,255);fill-opacity:1"/><path d="M-7.663924324379812,-21.14080700006828L22.112405491072256,-114.55104502449491L94.0123895009011,-28.407564489169168z" style="fill:rgb(255,192,0);fill-opacity:1"/><path d="M-59.821744047198884,139.92042588021772L-78.74390101604496,49.35859776005536M-78.74390101604496,49.35859776005536L-152.22653099974858,46.71530674693808M146.54192733711852,47.198967615322346L93.19466407220733,-28.756940872351095M93.19466407220733,-28.756940872351095L22.279759283703353,-113.68957524391313" style="fill:none;stroke:rgb(0,0,0);stroke-opacity:1;stroke-width:2;stroke-linecap:round"/><path d="M-6.50222831326539,-22.479258171789045L-59.876126886309365,140.88538870012647L-79.20084255198624,49.21999271446752zM-7.968511215098685,-21.822169718892813L93.40793460998462,-29.202789048096296L147.28361532612274,47.81408511249223z" style="fill:rgb(48,160,255);fill-opacity:1"/><path d="M22.279759283703353,-113.68957524391313L-28.360311509330888,-161.00178015309783" style="fill:none;stroke:rgb(0,0,0);stroke-opacity:1;stroke-width:2;stroke-linecap:round"/><path d="M-79.12444298561941,50.269417518237525L-28.607063162619234,-161.83164984662335L22.907052906566157,-113.77052530856976z" style="fill:rgb(48,160,255);fill-opacity:1"/><path d="M-78.34645296019993,48.88617613589093L-59.36819003331221,140.7656574804597L-153.07753306948027,46.342496770860535z" style="fill:rgb(255,192,0);fill-opacity:1"/><path d="M-7.055951737959322,-22.587073732267015L67.4373309189243,149.69976639776135L-60.47603830469111,140.35723433246739zM-7.66770111045418,-22.316632644130845L147.30772423323938,47.010889124065656L66.62898913780607,150.05421225313154z" style="fill:rgb(48,160,255);fill-opacity:1"/><path d="M66.74063761178991,149.20240151521213L-59.821744047198884,139.92042588021772M-152.22653099974858,46.71530674693808L-59.821744047198884,139.92042588021772M126.45515283968903,43.112612243257445L146.54192733711852,47.198967615322346M146.54192733711852,47.198967615322346L66.74063761178991,149.20240151521213" style="fill:none;stroke:rgb(0,0,0);stroke-opacity:1;stroke-width:2;stroke-linecap:round"/><path d="M126.94179240009282,43.982871662269936L93.30557775160929,-28.827277233684534L21.68220604389762,-114.48949830159218zM-78.0233204921859,49.82512692044896L-152.78843999498454,47.19344459067912L-138.09484426268924,-72.15282160190401z" style="fill:rgb(48,160,255);fill-opacity:1"/><path d="M-137.93617273406616,-71.20815459776937L-152.22653099974858,46.71530674693808" style="fill:none;stroke:rgb(0,0,0);stroke-opacity:1;stroke-width:2;stroke-linecap:round"/><path d="M126.17340081683246,43.46752163584323L147.32077322299335,47.706745513954345L92.69757020918908,-29.619628163568873zM-78.63997710432301,50.29367998523427L-138.54434706650798,-71.34139684636853L-27.85606108861102,-161.80362012967757zM127.03408218376175,43.92738725262469L22.36899673530312,-113.76530900499627L-29.028478305003365,-161.74082140138194z" style="fill:rgb(48,160,255);fill-opacity:1"/><path d="M66.74063761178991,149.20240151521213L126.45515283968903,43.112612243257445M-28.360311509330888,-161.00178015309783L12.963703475849492,-90.64311124895109M-137.93617273406616,-71.20815459776937L-28.360311509330888,-161.00178015309783" style="fill:none;stroke:rgb(0,0,0);stroke-opacity:1;stroke-width:2;stroke-linecap:round"/><path d="M126.21057934470231,42.576540190293365L66.18752517570717,150.0321032259306L147.33961326818797,46.90533795756795z" style="fill:rgb(255,192,0);fill-opacity:1"/><path d="M13.498337326566967,-91.43970403755557L-152.96435508962193,46.681250036750775L-59.61855380804298,140.75107537900954zM13.004381049680312,-91.60770224527164L-60.47106159826946,140.36257053239342L67.34927758902965,149.72484785935697zM13.843947542678928,-91.02679716824439L-138.3739527127933,-71.64089539926294L-152.66899508785085,47.53173346772496z" style="fill:rgb(48,160,255);fill-opacity:1"/><path d="M12.963703475849492,-90.64311124895109L-137.93617273406616,-71.20815459776937" style="fill:none;stroke:rgb(0,0,0);stroke-opacity:1;stroke-width:2;stroke-linecap:round"/><path d="M13.71290914490172,-90.27521530340822L-28.227904241334976,-161.75117900555412L-138.8177856711143,-70.82665169085597z" style="fill:rgb(255,192,0);fill-opacity:1"/><path d="M12.530308124019816,-91.51181489440764L66.605971741873,150.1266780367439L127.02321406143561,43.057039367182256zM127.08092698678551,43.89213085791635L-28.915997551559403,-161.83110936578313L12.893615370981527,-90.59330065092468z" style="fill:rgb(48,160,255);fill-opacity:1"/><path d="M12.963703475849492,-90.64311124895109L126.45515283968903,43.112612243257445" style="fill:none;stroke:rgb(0,0,0);stroke-opacity:1;stroke-width:2;stroke-linecap:round"/></svg>