<svg xmlns="http://www.w3.org/2000/svg" viewBox="-250 -250 500 500" width="400" height="400" style="background-color: rgb(255, 255, 255);"><path d="M143.81573435449863,33.159007962256794L-7.669677374330561,72.86765929522532M-7.669677374330561,72.86765929522532L-59.67284473410617,187.8406951498937M-101.29280984668641,-58.06266117445709L-7.669677374330561,72.86765929522532" style="fill:none;stroke:rgb(0,0,0);stroke-opacity:1;stroke-width:2;stroke-linecap:round"/><path d="M-185.43569946707896,127.96761682958157L-7.669677374330561,72.86765929522532M-7.669677374330561,72.86765929522532L-7.669677374330561,-178.69070092270888M185.43569946707888,123.59074338835275L-7.669677374330561,72.86765929522532" style="fill:none;stroke:rgb(22,171,197);stroke-opacity:1;stroke-width:2;stroke-linecap:round"/><path d="M-211.15825646293536,-24.00901373507196L-101.29280984668641,-58.06266117445709M-101.29280984668641,-58.06266117445709L-7.669677374330561,-178.69070092270888M143.81573435449863,-122.31261293599803L143.81573435449863,33.159007962256794M143.81573435449863,33.159007962256794L185.43569946707888,123.59074338835275M143.81573435449863,-122.31261293599803L-7.669677374330561,-178.69070092270888M-7.669677374330561,-178.69070092270888L-59.67284473410615,-219.1892859662953" style="fill:none;stroke:rgb(0,0,0);stroke-opacity:1;stroke-width:2;stroke-linecap:round"/><path d="M-185.43569946707896,-123.59074338835262L-7.669677374330561,-178.69070092270888M-7.669677374330561,-178.69070092270888L185.43569946707888,-127.96761682958143" style="fill:none;stroke:rgb(22,171,197);stroke-opacity:1;stroke-width:2;stroke-linecap:round"/><path d="M185.43569946707888,-127.96761682958143L143.81573435449863,-122.31261293599803M-185.43569946707896,127.96761682958157L-59.67284473410617,187.8406951498937M-59.67284473410617,187.8406951498937L59.672844734106064,219.18928596629542" style="fill:none;stroke:rgb(0,0,0);stroke-opacity:1;stroke-width:2;stroke-linecap:round"/><path d="M186.26595933648244,-128.2009010927885L-8.154233315311227,-179.31772619584342L-8.015381302753461,73.72796883156693zM-186.24873979850162,-123.813401138222L-7.3335362803819635,73.73840989423616L-7.192778136856502,-179.33879377185033zM-186.41315203541848,128.1218607289631L186.4193440130159,123.71154846835208L-7.675869351928079,72.59261031584448z" style="fill:rgb(0,255,238);fill-opacity:0.3"/><path d="M-185.43569946707896,-123.59074338835262L-211.15825646293536,-24.00901373507196M-211.15825646293536,-24.00901373507196L-185.43569946707896,127.96761682958157" style="fill:none;stroke:rgb(0,0,0);stroke-opacity:1;stroke-width:2;stroke-linecap:round"/><path d="M185.78197631220118,-128.82803818831985L-8.500098172047169,73.10211114266318L185.91984341967319,124.21671289965332zM-185.77134019558997,-124.46134465840521L-185.91290269957247,128.61687189615472L-6.85683341332604,73.08900549870476z" style="fill:rgb(0,255,238);fill-opacity:0.3"/><path d="M185.43569946707888,123.59074338835275L211.15825646293527,24.009013735072102M185.43569946707888,123.59074338835275L59.672844734106064,219.18928596629542" style="fill:none;stroke:rgb(0,0,0);stroke-opacity:1;stroke-width:2;stroke-linecap:round"/><path d="M7.669677374330466,178.690700922709L185.43569946707888,123.59074338835275M185.43569946707888,123.59074338835275L185.43569946707888,-127.96761682958143" style="fill:none;stroke:rgb(22,171,197);stroke-opacity:1;stroke-width:2;stroke-linecap:round"/><path d="M-143.81573435449872,122.31261293599817L-185.43569946707896,127.96761682958157" style="fill:none;stroke:rgb(0,0,0);stroke-opacity:1;stroke-width:2;stroke-linecap:round"/><path d="M-185.43569946707896,-123.59074338835262L-185.43569946707896,127.96761682958157M-185.43569946707896,127.96761682958157L7.669677374330466,178.690700922709" style="fill:none;stroke:rgb(22,171,197);stroke-opacity:1;stroke-width:2;stroke-linecap:round"/><path d="M59.672844734106064,219.18928596629542L7.669677374330466,178.690700922709M-185.43569946707896,-123.59074338835262L-59.67284473410615,-219.1892859662953M-59.67284473410615,-219.1892859662953L59.672844734106086,-187.84069514989355" style="fill:none;stroke:rgb(0,0,0);stroke-opacity:1;stroke-width:2;stroke-linecap:round"/><path d="M-186.41925971599295,127.84650492584476L7.675899586886339,178.96643825887503L186.41303750343698,123.43611795592352z" style="fill:rgb(0,255,238);fill-opacity:0.3"/><path d="M211.15825646293527,24.009013735072102L185.43569946707888,-127.96761682958143M185.43569946707888,-127.96761682958143L59.672844734106086,-187.84069514989355" style="fill:none;stroke:rgb(0,0,0);stroke-opacity:1;stroke-width:2;stroke-linecap:round"/><path d="M185.43569946707888,-127.96761682958143L7.669677374330466,-72.86765929522517" style="fill:none;stroke:rgb(22,171,197);stroke-opacity:1;stroke-width:2;stroke-linecap:round"/><path d="M7.264001361505115,-72.22421538054988L-8.224705526629327,-179.31366929367115L186.396403632203,-127.98809237329442zM8.224844236355983,-72.24578211009133L-186.39708849260273,-123.57041596897379L-7.263455210832294,-179.33290552722158z" style="fill:rgb(0,255,238);fill-opacity:0.3"/><path d="M-143.81573435449872,-33.15900796225665L-185.43569946707896,-123.59074338835262" style="fill:none;stroke:rgb(0,0,0);stroke-opacity:1;stroke-width:2;stroke-linecap:round"/><path d="M7.669677374330466,-72.86765929522517L-185.43569946707896,-123.59074338835262" style="fill:none;stroke:rgb(22,171,197);stroke-opacity:1;stroke-width:2;stroke-linecap:round"/><path d="M6.856637042907809,-73.09031704509455L185.77184056102746,124.46149398736358L185.91259870455295,-128.61570967872288zM8.499937243734031,-73.10094355843223L-185.92025540805963,-124.21776866148716L-185.78140339550185,128.8279263659232z" style="fill:rgb(0,255,238);fill-opacity:0.3"/><path d="M101.29280984668632,58.06266117445724L211.15825646293527,24.009013735072102" style="fill:none;stroke:rgb(0,0,0);stroke-opacity:1;stroke-width:2;stroke-linecap:round"/><path d="M7.334036645819446,-73.73826056527776L7.192474141836965,179.33995598928215L186.2485434280834,123.81208959183219zM8.015954219452782,-73.72808065396359L-186.26612026479557,128.20206867701944L8.15382132692476,179.31667043400955z" style="fill:rgb(0,255,238);fill-opacity:0.3"/><path d="M59.672844734106086,-187.84069514989355L7.669677374330466,-72.86765929522517M-143.81573435449872,-33.15900796225665L-143.81573435449872,122.31261293599817M-143.81573435449872,122.31261293599817L7.669677374330466,178.690700922709M7.669677374330466,178.690700922709L101.29280984668632,58.06266117445724" style="fill:none;stroke:rgb(0,0,0);stroke-opacity:1;stroke-width:2;stroke-linecap:round"/><path d="M7.669677374330466,178.690700922709L7.669677374330466,-72.86765929522517" style="fill:none;stroke:rgb(22,171,197);stroke-opacity:1;stroke-width:2;stroke-linecap:round"/><path d="M7.669677374330466,-72.86765929522517L-143.81573435449872,-33.15900796225665M101.29280984668632,58.06266117445724L7.669677374330466,-72.86765929522517" style="fill:none;stroke:rgb(0,0,0);stroke-opacity:1;stroke-width:2;stroke-linecap:round"/></svg>