<svg xmlns="http://www.w3.org/2000/svg" viewBox="-300 -300 600 600" width="400" height="400" style="background-color: rgb(255, 255, 255);"><path d="M36.28259044102584,11.34939935342282L129.222110204513,-173.7360611636672M-129.222110204513,-195.79510693243685L36.28259044102584,11.34939935342282M-36.28259044102584,217.03342011544103L36.28259044102584,11.34939935342282M36.28259044102584,11.34939935342282L186.66189466514183,81.40600032968982M36.28259044102584,11.34939935342282L-231.50964239504648,45.71371415432716" style="fill:none;stroke:rgb(0,0,0);stroke-opacity:1;stroke-width:2;stroke-linecap:round"/><path d="M36.264402882201196,11.682053360619019L-187.62170778372172,-81.64076662680895L232.487643072451,-45.811601864404466z" style="fill:rgb(229,255,253);fill-opacity:0.3"/><path d="M129.222110204513,-173.7360611636672L-186.66189466514183,-81.40600032968995M-186.66189466514183,-81.40600032968995L231.50964239504648,-45.71371415432727M129.222110204513,195.79510693243677L-186.66189466514183,-81.40600032968995M-186.66189466514183,-81.40600032968995L-36.28259044102584,-11.349399353422937M-186.66189466514183,-81.40600032968995L-36.28259044102584,217.03342011544103M186.66189466514183,81.40600032968982L-129.222110204513,173.73606116366707M-129.222110204513,173.73606116366707L-36.28259044102584,-11.349399353422937M231.50964239504648,-45.71371415432727L-129.222110204513,173.73606116366707M-129.222110204513,173.73606116366707L36.28259044102584,-217.03342011544112M-129.222110204513,173.73606116366707L-129.222110204513,-195.79510693243685M36.28259044102584,-217.03342011544112L129.222110204513,195.79510693243677M-36.28259044102584,-11.349399353422937L36.28259044102584,-217.03342011544112M36.28259044102584,-217.03342011544112L186.66189466514183,81.40600032968982M36.28259044102584,-217.03342011544112L-231.50964239504648,45.71371415432716" style="fill:none;stroke:rgb(0,0,0);stroke-opacity:1;stroke-width:2;stroke-linecap:round"/><path d="M36.59994354587664,-217.78107057669507L129.70751002694985,196.61295390266395L-187.4646475924295,-81.47619683866316zM36.33416987740341,-217.6233377571708L-187.5872785968054,-81.18830765109719L232.38344689033246,-45.341489191190334zM36.10157725550422,-217.82370431793396L232.31291594756274,-45.64330327411638L-129.84437057150765,174.455934485949zM36.63943921255169,-217.8836471193407L36.77863988999544,11.786670220024076L-232.36254061554192,46.1266702916255zM36.77892408659501,-217.59706037130871L-130.03077684371206,-196.12159200385017L36.59492343465574,12.239524680703743zM36.519710958381836,11.988645110049893L129.92624627623456,-174.32370005856484L-187.6031512542194,-81.45760719141937z" style="fill:rgb(229,255,253);fill-opacity:0.3"/><path d="M-36.28259044102584,-11.349399353422937L129.222110204513,195.79510693243677M129.222110204513,195.79510693243677L-231.50964239504648,45.71371415432716M129.222110204513,195.79510693243677L129.222110204513,-173.7360611636672M231.50964239504648,-45.71371415432727L-129.222110204513,-195.79510693243685M231.50964239504648,-45.71371415432727L-36.28259044102584,-11.349399353422937M231.50964239504648,-45.71371415432727L-36.28259044102584,217.03342011544103" style="fill:none;stroke:rgb(0,0,0);stroke-opacity:1;stroke-width:2;stroke-linecap:round"/><path d="M36.11445005882259,11.880564025439154L232.45135570517868,-45.66229686525615L-129.99568313244194,-196.37768889352432zM35.82886265132294,-217.74456455084186L129.9007910810484,-173.971203547877L36.05763735419335,12.295686173033376zM36.05748238710858,-217.97987992781125L35.82878401813472,11.639495254980778L187.34080914195022,82.06236424050199zM36.973547179853774,-217.55727820530794L-129.41737273482104,174.69646894087228L-129.7178044130329,-196.23165661977524zM-36.553909184838844,217.5437687967959L130.09415215759714,196.06092414049863L-187.26261787441297,-82.18216621910663zM-36.18592893939741,217.59507659591023L-130.10276193106253,173.7843603667565L232.29363261996758,-46.32366983788589zM35.71942610191738,-217.73210279823638L129.33207441354426,196.78289834777576L129.67531033459022,-174.0251698962109zM-36.07323861253467,217.83485702587285L36.94476853764563,10.813423370489756L-232.38117232015745,45.448253226828385zM-36.8762062829579,217.7646368536363L35.996345721168595,10.665380258542001L187.54175522693114,81.35880268637537zM-36.402661075963444,217.42722608525025L-232.34701842574012,45.1916684680122L130.17955687014424,195.9233466489425zM-36.25670251754381,217.5048089508729L187.5689244217784,81.0056709858228L-130.1550278846316,173.66500167210222zM-35.832843432070796,-11.349903604608727L-129.44678623573077,174.6828908419843L-129.44718118225026,-196.74143235956828zM-35.96890487551532,-11.01775922546443L36.805635121553536,-217.85532079718362L-232.3463726410847,46.20397470811117zM-35.82917797630104,-11.638645618385619L-36.05789702802222,217.98008875117986L-187.34000054287026,-82.06342270046609zM-36.186434867582506,-10.787702561711638L130.05882832946725,-174.22685641317688L-187.5947683635394,-81.47690187189156zM-36.11487838837795,-11.88065358530345L129.99573678808736,196.37808335057224L-232.45098103126873,45.66199196807219z" style="fill:rgb(229,255,253);fill-opacity:0.3"/><path d="M129.222110204513,-173.7360611636672L-231.50964239504648,45.71371415432716M-231.50964239504648,45.71371415432716L186.66189466514183,81.40600032968982" style="fill:none;stroke:rgb(0,0,0);stroke-opacity:1;stroke-width:2;stroke-linecap:round"/><path d="M-36.55347769914467,-10.838834289665009L-129.90858365043547,-196.4340728956931L232.4670030990878,-45.58531325482895z" style="fill:rgb(229,255,253);fill-opacity:0.3"/><path d="M186.66189466514183,81.40600032968982L-129.222110204513,-195.79510693243685M-129.222110204513,-195.79510693243685L-36.28259044102584,217.03342011544103" style="fill:none;stroke:rgb(0,0,0);stroke-opacity:1;stroke-width:2;stroke-linecap:round"/><path d="M-36.52014301796688,-11.988436286967527L187.60358739395804,81.45824537132157L-129.92625035638815,174.32285305557994zM-36.910718246755,-11.069616838858483L36.224428951905175,-217.9516960878409L187.34818395999164,82.04449378752514zM-36.77856926387675,-11.786114226549167L-36.63915679045973,217.88393464930715L232.3621875673313,-46.12751381506717zM-36.95180614368205,-11.390067820095014L129.53463700914116,196.68573509296962L129.57879910254107,-174.58602085752796zM-36.10177153295156,217.82361712325928L129.8440951515329,-174.45662859871567L-232.31244625014068,45.64408458155737zM-36.333760560653865,217.62337423637277L-232.38361558982922,45.34104760605653L187.5870379795526,81.18871275702874zM-36.600146437579276,217.78112246980615L187.46524897842346,81.47550190161903L-129.7079085212412,-196.61231085873118z" style="fill:rgb(229,255,253);fill-opacity:0.3"/><path d="M-36.28259044102584,217.03342011544103L129.222110204513,-173.7360611636672" style="fill:none;stroke:rgb(0,0,0);stroke-opacity:1;stroke-width:2;stroke-linecap:round"/><path d="M-36.05734495303791,-11.402881827883496L-129.5570595136188,-196.7293843351277L-36.172886619907956,218.02117999259244zM-36.15938588122139,-11.139312038600792L-232.41680698501014,46.1137238500087L130.00607023467222,-174.34615817417088zM-36.26418245566007,-11.682048121263906L-232.4877686011124,45.81168240064613L187.62161288584198,81.64068085121181zM-36.51953594147168,-11.094795184330827L187.4994748469449,81.92771399912803L-129.82274488587024,-196.57142477096716zM-36.6398435865842,-11.49922373856381L129.77421667283866,-174.54655629254023L-36.47744376379313,217.99373962945492z" style="fill:rgb(229,255,253);fill-opacity:0.3"/></svg>